<?xml version="1.0" encoding="UTF-8" standalone="no"?>
<!-- Creator: CorelDRAW X7 -->

<svg
   xmlns:dc="http://purl.org/dc/elements/1.1/"
   xmlns:cc="http://creativecommons.org/ns#"
   xmlns:rdf="http://www.w3.org/1999/02/22-rdf-syntax-ns#"
   xmlns:svg="http://www.w3.org/2000/svg"
   xmlns="http://www.w3.org/2000/svg"
   xmlns:sodipodi="http://sodipodi.sourceforge.net/DTD/sodipodi-0.dtd"
   xmlns:inkscape="http://www.inkscape.org/namespaces/inkscape"
   xml:space="preserve"
   width="325.12mm"
   height="182.88mm"
   version="1.1"
   style="shape-rendering:geometricPrecision; text-rendering:geometricPrecision; image-rendering:optimizeQuality; fill-rule:evenodd; clip-rule:evenodd"
   viewBox="0 0 32512 18288"
   id="svg2"
   inkscape:version="0.48.4 r9939"
   sodipodi:docname="bg.png"><metadata
     id="metadata441"><rdf:RDF><cc:Work
         rdf:about=""><dc:format>image/svg+xml</dc:format><dc:type
           rdf:resource="http://purl.org/dc/dcmitype/StillImage" /><dc:title></dc:title></cc:Work></rdf:RDF></metadata><sodipodi:namedview
     pagecolor="#ffffff"
     bordercolor="#666666"
     borderopacity="1"
     objecttolerance="10"
     gridtolerance="10"
     guidetolerance="10"
     inkscape:pageopacity="0"
     inkscape:pageshadow="2"
     inkscape:window-width="1366"
     inkscape:window-height="744"
     id="namedview439"
     showgrid="false"
     inkscape:zoom="0.48958333"
     inkscape:cx="823.69434"
     inkscape:cy="294.91866"
     inkscape:window-x="0"
     inkscape:window-y="24"
     inkscape:window-maximized="1"
     inkscape:current-layer="svg2" /><defs
     id="defs4"><style
       type="text/css"
       id="style6">
    .fil0 {fill:#0E47A1}
    .fil2 {fill:#104394}
    .fil1 {fill:#124088}
    .fil3 {fill:#104394}
   </style><clipPath
       id="id0"><path
         d="M9062 1976l14376 0 0 14375 -14376 0 0 -14375z"
         id="path9" /></clipPath><clipPath
       id="id1"><rect
         x="9394"
         y="6644"
         width="13724"
         height="5000"
         id="rect12" /></clipPath></defs><g
     id="Layer_x0020_4"><metadata
       id="CorelCorpID_0Corel-Layer" /><rect
       class="fil0"
       width="32512"
       height="18288"
       id="rect16" /></g><g
     id="Layer_x0020_3"><metadata
       id="CorelCorpID_1Corel-Layer" /><rect
       class="fil1"
       y="1288"
       width="10267"
       height="250"
       id="rect20" /><rect
       class="fil1"
       y="1788"
       width="9750"
       height="250"
       id="rect22" /><rect
       class="fil1"
       y="2288"
       width="9104"
       height="250"
       id="rect24" /><rect
       class="fil1"
       x="10750"
       width="250"
       height="1288"
       id="rect26" /><rect
       class="fil1"
       x="18750"
       width="250"
       height="1039"
       id="rect28" /><rect
       class="fil1"
       y="3288"
       width="9000"
       height="250"
       id="rect30" /><rect
       class="fil1"
       y="3788"
       width="8750"
       height="250"
       id="rect32" /><rect
       class="fil1"
       y="4538"
       width="8750"
       height="250"
       id="rect34" /><rect
       class="fil1"
       y="5788"
       width="6000"
       height="250"
       id="rect36" /><rect
       class="fil1"
       y="6288"
       width="6000"
       height="250"
       id="rect38" /><rect
       class="fil1"
       y="6788"
       width="7500"
       height="250"
       id="rect40" /><rect
       class="fil1"
       y="8288"
       width="7500"
       height="250"
       id="rect42" /><rect
       class="fil1"
       y="9788"
       width="7500"
       height="250"
       id="rect44" /><rect
       class="fil1"
       y="11288"
       width="7500"
       height="250"
       id="rect46" /><rect
       class="fil1"
       y="12788"
       width="7500"
       height="250"
       id="rect48" /><rect
       class="fil1"
       y="14288"
       width="7500"
       height="250"
       id="rect50" /><rect
       class="fil1"
       y="15788"
       width="7500"
       height="250"
       id="rect52" /><rect
       class="fil1"
       x="22250"
       y="1038"
       width="10271"
       height="250"
       id="rect54" /><rect
       class="fil1"
       x="22500"
       y="1788"
       width="10021"
       height="250"
       id="rect56" /><rect
       class="fil1"
       x="23271"
       y="2288"
       width="9250"
       height="250"
       id="rect58" /><rect
       class="fil1"
       x="23729"
       y="2788"
       width="8792"
       height="250"
       id="rect60" /><rect
       class="fil1"
       x="27000"
       y="3788"
       width="5521"
       height="250"
       id="rect62" /><rect
       class="fil1"
       x="26750"
       y="4288"
       width="5771"
       height="250"
       id="rect64" /><rect
       class="fil1"
       x="27000"
       y="5783"
       width="5512"
       height="250"
       id="rect66" /><rect
       class="fil1"
       x="26000"
       y="6788"
       width="6521"
       height="250"
       id="rect68" /><rect
       class="fil1"
       x="23500"
       y="7787"
       width="9021"
       height="250"
       id="rect70" /><rect
       class="fil1"
       x="23500"
       y="9288"
       width="9021"
       height="250"
       id="rect72" /><rect
       class="fil1"
       x="23500"
       y="10781"
       width="9021"
       height="250"
       id="rect74" /><rect
       class="fil1"
       x="26000"
       y="11788"
       width="6521"
       height="250"
       id="rect76" /><rect
       class="fil1"
       x="6500"
       y="5288"
       width="2500"
       height="250"
       id="rect78" /><polygon
       class="fil1"
       points="6000,6038 6750,5288 6396,5288 5646,6038 "
       id="polygon80" /><rect
       class="fil1"
       x="23500"
       y="7277"
       width="2104"
       height="261"
       id="rect82" /><rect
       class="fil1"
       x="24500"
       y="5288"
       width="2000"
       height="245"
       id="rect84" /><rect
       class="fil1"
       x="24179"
       y="3288"
       width="2326"
       height="250"
       id="rect86" /><path
       class="fil1"
       d="M19770 13271c-202,0 -365,168 -365,375 0,207 163,375 365,375 202,0 365,-168 365,-375 0,-207 -163,-375 -365,-375zm0 250c-69,0 -125,56 -125,125 0,69 56,125 125,125 69,0 125,-56 125,-125 0,-69 -56,-125 -125,-125z"
       id="path88" /><path
       class="fil1"
       d="M25135 13788c-202,0 -365,168 -365,375 0,207 163,375 365,375 202,0 365,-168 365,-375 0,-207 -163,-375 -365,-375zm0 250c-69,0 -125,56 -125,125 0,69 56,125 125,125 69,0 125,-56 125,-125 0,-69 -56,-125 -125,-125z"
       id="path90" /><path
       class="fil1"
       d="M13125 1038c-207,0 -375,168 -375,375 0,207 168,375 375,375 207,0 375,-168 375,-375 0,-207 -168,-375 -375,-375zm0 250c-71,0 -128,56 -128,125 0,69 57,125 128,125 71,0 128,-56 128,-125 0,-69 -57,-125 -128,-125z"
       id="path92" /><path
       class="fil1"
       d="M14125 1038c-207,0 -375,168 -375,375 0,207 168,375 375,375 207,0 375,-168 375,-375 0,-207 -168,-375 -375,-375zm0 250c-71,0 -128,56 -128,125 0,69 57,125 128,125 71,0 128,-56 128,-125 0,-69 -57,-125 -128,-125z"
       id="path94" /><path
       class="fil1"
       d="M15125 1038c-207,0 -375,168 -375,375 0,207 168,375 375,375 207,0 375,-168 375,-375 0,-207 -168,-375 -375,-375zm0 250c-71,0 -128,56 -128,125 0,69 57,125 128,125 71,0 128,-56 128,-125 0,-69 -57,-125 -128,-125z"
       id="path96" /><path
       class="fil1"
       d="M16125 1038c-207,0 -375,168 -375,375 0,207 168,375 375,375 207,0 375,-168 375,-375 0,-207 -168,-375 -375,-375zm0 250c-71,0 -128,56 -128,125 0,69 57,125 128,125 71,0 128,-56 128,-125 0,-69 -57,-125 -128,-125z"
       id="path98" /><path
       class="fil1"
       d="M17125 1038c-207,0 -375,168 -375,375 0,207 168,375 375,375 207,0 375,-168 375,-375 0,-207 -168,-375 -375,-375zm0 250c-71,0 -128,56 -128,125 0,69 57,125 128,125 71,0 128,-56 128,-125 0,-69 -57,-125 -128,-125z"
       id="path100" /><path
       class="fil1"
       d="M18125 1038c-207,0 -375,168 -375,375 0,207 168,375 375,375 207,0 375,-168 375,-375 0,-207 -168,-375 -375,-375zm0 250c-71,0 -128,56 -128,125 0,69 57,125 128,125 71,0 128,-56 128,-125 0,-69 -57,-125 -128,-125z"
       id="path102" /><path
       class="fil1"
       d="M13125 4038c-207,0 -375,168 -375,375 0,207 168,375 375,375 207,0 375,-168 375,-375 0,-207 -168,-375 -375,-375zm0 250c-71,0 -128,56 -128,125 0,69 57,125 128,125 71,0 128,-56 128,-125 0,-69 -57,-125 -128,-125z"
       id="path104" /><path
       class="fil1"
       d="M14125 4038c-207,0 -375,168 -375,375 0,207 168,375 375,375 207,0 375,-168 375,-375 0,-207 -168,-375 -375,-375zm0 250c-71,0 -128,56 -128,125 0,69 57,125 128,125 71,0 128,-56 128,-125 0,-69 -57,-125 -128,-125z"
       id="path106" /><path
       class="fil1"
       d="M15125 4038c-207,0 -375,168 -375,375 0,207 168,375 375,375 207,0 375,-168 375,-375 0,-207 -168,-375 -375,-375zm0 250c-71,0 -128,56 -128,125 0,69 57,125 128,125 71,0 128,-56 128,-125 0,-69 -57,-125 -128,-125z"
       id="path108" /><path
       class="fil1"
       d="M16125 4038c-207,0 -375,168 -375,375 0,207 168,375 375,375 207,0 375,-168 375,-375 0,-207 -168,-375 -375,-375zm0 250c-71,0 -128,56 -128,125 0,69 57,125 128,125 71,0 128,-56 128,-125 0,-69 -57,-125 -128,-125z"
       id="path110" /><path
       class="fil1"
       d="M17125 4038c-207,0 -375,168 -375,375 0,207 168,375 375,375 207,0 375,-168 375,-375 0,-207 -168,-375 -375,-375zm0 250c-71,0 -128,56 -128,125 0,69 57,125 128,125 71,0 128,-56 128,-125 0,-69 -57,-125 -128,-125z"
       id="path112" /><path
       class="fil1"
       d="M18125 4038c-207,0 -375,168 -375,375 0,207 168,375 375,375 207,0 375,-168 375,-375 0,-207 -168,-375 -375,-375zm0 250c-71,0 -128,56 -128,125 0,69 57,125 128,125 71,0 128,-56 128,-125 0,-69 -57,-125 -128,-125z"
       id="path114" /><path
       class="fil1"
       d="M6875 5894c-207,0 -375,168 -375,375 0,207 168,375 375,375 207,0 375,-168 375,-375 0,-207 -168,-375 -375,-375zm0 250c-71,0 -128,56 -128,125 0,69 57,125 128,125 71,0 128,-56 128,-125 0,-69 -57,-125 -128,-125z"
       id="path116" /><path
       class="fil1"
       d="M6875 7288c-207,0 -375,168 -375,375 0,207 168,375 375,375 207,0 375,-168 375,-375 0,-207 -168,-375 -375,-375zm0 250c-71,0 -128,56 -128,125 0,69 57,125 128,125 71,0 128,-56 128,-125 0,-69 -57,-125 -128,-125z"
       id="path118" /><path
       class="fil1"
       d="M5875 7288c-207,0 -375,168 -375,375 0,207 168,375 375,375 207,0 375,-168 375,-375 0,-207 -168,-375 -375,-375zm0 250c-71,0 -128,56 -128,125 0,69 57,125 128,125 71,0 128,-56 128,-125 0,-69 -57,-125 -128,-125z"
       id="path120" /><path
       class="fil1"
       d="M6875 10288c-207,0 -375,168 -375,375 0,207 168,375 375,375 207,0 375,-168 375,-375 0,-207 -168,-375 -375,-375zm0 250c-71,0 -128,56 -128,125 0,69 57,125 128,125 71,0 128,-56 128,-125 0,-69 -57,-125 -128,-125z"
       id="path122" /><path
       class="fil1"
       d="M5875 10288c-207,0 -375,168 -375,375 0,207 168,375 375,375 207,0 375,-168 375,-375 0,-207 -168,-375 -375,-375zm0 250c-71,0 -128,56 -128,125 0,69 57,125 128,125 71,0 128,-56 128,-125 0,-69 -57,-125 -128,-125z"
       id="path124" /><path
       class="fil1"
       d="M6875 14788c-207,0 -375,168 -375,375 0,207 168,375 375,375 207,0 375,-168 375,-375 0,-207 -168,-375 -375,-375zm0 250c-71,0 -128,56 -128,125 0,69 57,125 128,125 71,0 128,-56 128,-125 0,-69 -57,-125 -128,-125z"
       id="path126" /><path
       class="fil1"
       d="M5875 14788c-207,0 -375,168 -375,375 0,207 168,375 375,375 207,0 375,-168 375,-375 0,-207 -168,-375 -375,-375zm0 250c-71,0 -128,56 -128,125 0,69 57,125 128,125 71,0 128,-56 128,-125 0,-69 -57,-125 -128,-125z"
       id="path128" /><path
       class="fil1"
       d="M6875 8788c-207,0 -375,168 -375,375 0,207 168,375 375,375 207,0 375,-168 375,-375 0,-207 -168,-375 -375,-375zm0 250c-71,0 -128,56 -128,125 0,69 57,125 128,125 71,0 128,-56 128,-125 0,-69 -57,-125 -128,-125z"
       id="path130" /><path
       class="fil1"
       d="M6875 11788c-207,0 -375,168 -375,375 0,207 168,375 375,375 207,0 375,-168 375,-375 0,-207 -168,-375 -375,-375zm0 250c-71,0 -128,56 -128,125 0,69 57,125 128,125 71,0 128,-56 128,-125 0,-69 -57,-125 -128,-125z"
       id="path132" /><path
       class="fil1"
       d="M6875 13288c-207,0 -375,168 -375,375 0,207 168,375 375,375 207,0 375,-168 375,-375 0,-207 -168,-375 -375,-375zm0 250c-71,0 -128,56 -128,125 0,69 57,125 128,125 71,0 128,-56 128,-125 0,-69 -57,-125 -128,-125z"
       id="path134" /><path
       class="fil1"
       d="M6875 16288c-207,0 -375,168 -375,375 0,207 168,375 375,375 207,0 375,-168 375,-375 0,-207 -168,-375 -375,-375zm0 250c-71,0 -128,56 -128,125 0,69 57,125 128,125 71,0 128,-56 128,-125 0,-69 -57,-125 -128,-125z"
       id="path136" /><path
       class="fil1"
       d="M8625 12538c-207,0 -375,168 -375,375 0,207 168,375 375,375 207,0 375,-168 375,-375 0,-207 -168,-375 -375,-375zm0 250c-71,0 -128,56 -128,125 0,69 57,125 128,125 71,0 128,-56 128,-125 0,-69 -57,-125 -128,-125z"
       id="path138" /><path
       class="fil1"
       d="M8625 14038c-207,0 -375,168 -375,375 0,207 168,375 375,375 207,0 375,-168 375,-375 0,-207 -168,-375 -375,-375zm0 250c-71,0 -128,56 -128,125 0,69 57,125 128,125 71,0 128,-56 128,-125 0,-69 -57,-125 -128,-125z"
       id="path140" /><path
       class="fil1"
       d="M8625 9538c-207,0 -375,168 -375,375 0,207 168,375 375,375 207,0 375,-168 375,-375 0,-207 -168,-375 -375,-375zm0 250c-71,0 -128,56 -128,125 0,69 57,125 128,125 71,0 128,-56 128,-125 0,-69 -57,-125 -128,-125z"
       id="path142" /><path
       class="fil1"
       d="M14125 14788c-202,0 -365,168 -365,375 0,207 163,375 365,375 202,0 365,-168 365,-375 0,-207 -163,-375 -365,-375zm0 250c-69,0 -125,56 -125,125 0,69 56,125 125,125 69,0 125,-56 125,-125 0,-69 -56,-125 -125,-125z"
       id="path144" /><path
       class="fil1"
       d="M15125 14788c-202,0 -365,168 -365,375 0,207 163,375 365,375 202,0 365,-168 365,-375 0,-207 -163,-375 -365,-375zm0 250c-69,0 -125,56 -125,125 0,69 56,125 125,125 69,0 125,-56 125,-125 0,-69 -56,-125 -125,-125z"
       id="path146" /><path
       class="fil1"
       d="M17125 14788c-202,0 -365,168 -365,375 0,207 163,375 365,375 202,0 365,-168 365,-375 0,-207 -163,-375 -365,-375zm0 250c-69,0 -125,56 -125,125 0,69 56,125 125,125 69,0 125,-56 125,-125 0,-69 -56,-125 -125,-125z"
       id="path148" /><path
       class="fil1"
       d="M18125 14788c-202,0 -365,168 -365,375 0,207 163,375 365,375 202,0 365,-168 365,-375 0,-207 -163,-375 -365,-375zm0 250c-69,0 -125,56 -125,125 0,69 56,125 125,125 69,0 125,-56 125,-125 0,-69 -56,-125 -125,-125z"
       id="path150" /><path
       class="fil1"
       d="M19113 14788c-202,0 -365,168 -365,375 0,207 163,375 365,375 201,0 365,-168 365,-375 0,-207 -164,-375 -365,-375zm0 250c-69,0 -125,56 -125,125 0,69 56,125 125,125 69,0 125,-56 125,-125 0,-69 -56,-125 -125,-125z"
       id="path152" /><path
       class="fil1"
       d="M25135 12788c-202,0 -365,168 -365,375 0,207 163,375 365,375 202,0 365,-168 365,-375 0,-207 -163,-375 -365,-375zm0 250c-69,0 -125,56 -125,125 0,69 56,125 125,125 69,0 125,-56 125,-125 0,-69 -56,-125 -125,-125z"
       id="path154" /><path
       class="fil1"
       d="M25135 14788c-202,0 -365,168 -365,375 0,207 163,375 365,375 202,0 365,-168 365,-375 0,-207 -163,-375 -365,-375zm0 250c-69,0 -125,56 -125,125 0,69 56,125 125,125 69,0 125,-56 125,-125 0,-69 -56,-125 -125,-125z"
       id="path156" /><path
       class="fil1"
       d="M25135 15788c-202,0 -365,168 -365,375 0,207 163,375 365,375 202,0 365,-168 365,-375 0,-207 -163,-375 -365,-375zm0 250c-69,0 -125,56 -125,125 0,69 56,125 125,125 69,0 125,-56 125,-125 0,-69 -56,-125 -125,-125z"
       id="path158" /><path
       class="fil1"
       d="M26135 12788c-202,0 -365,168 -365,375 0,207 163,375 365,375 202,0 365,-168 365,-375 0,-207 -163,-375 -365,-375zm0 250c-69,0 -125,56 -125,125 0,69 56,125 125,125 69,0 125,-56 125,-125 0,-69 -56,-125 -125,-125z"
       id="path160" /><path
       class="fil1"
       d="M26135 13788c-202,0 -365,168 -365,375 0,207 163,375 365,375 202,0 365,-168 365,-375 0,-207 -163,-375 -365,-375zm0 250c-69,0 -125,56 -125,125 0,69 56,125 125,125 69,0 125,-56 125,-125 0,-69 -56,-125 -125,-125z"
       id="path162" /><path
       class="fil1"
       d="M25135 11288c-202,0 -365,168 -365,375 0,207 163,375 365,375 202,0 365,-168 365,-375 0,-207 -163,-375 -365,-375zm0 250c-69,0 -125,56 -125,125 0,69 56,125 125,125 69,0 125,-56 125,-125 0,-69 -56,-125 -125,-125z"
       id="path164" /><path
       class="fil1"
       d="M25135 9788c-202,0 -365,168 -365,375 0,207 163,375 365,375 202,0 365,-168 365,-375 0,-207 -163,-375 -365,-375zm0 250c-69,0 -125,56 -125,125 0,69 56,125 125,125 69,0 125,-56 125,-125 0,-69 -56,-125 -125,-125z"
       id="path166" /><path
       class="fil1"
       d="M25135 8288c-202,0 -365,168 -365,375 0,207 163,375 365,375 202,0 365,-168 365,-375 0,-207 -163,-375 -365,-375zm0 250c-69,0 -125,56 -125,125 0,69 56,125 125,125 69,0 125,-56 125,-125 0,-69 -56,-125 -125,-125z"
       id="path168" /><path
       class="fil1"
       d="M26135 8288c-202,0 -365,168 -365,375 0,207 163,375 365,375 202,0 365,-168 365,-375 0,-207 -163,-375 -365,-375zm0 250c-69,0 -125,56 -125,125 0,69 56,125 125,125 69,0 125,-56 125,-125 0,-69 -56,-125 -125,-125z"
       id="path170" /><path
       class="fil1"
       d="M25135 6288c-202,0 -365,168 -365,375 0,207 163,375 365,375 202,0 365,-168 365,-375 0,-207 -163,-375 -365,-375zm0 250c-69,0 -125,56 -125,125 0,69 56,125 125,125 69,0 125,-56 125,-125 0,-69 -56,-125 -125,-125z"
       id="path172" /><path
       class="fil1"
       d="M26135 5783c-202,0 -365,167 -365,375 0,207 163,375 365,375 202,0 365,-168 365,-375 0,-208 -163,-375 -365,-375zm0 250c-69,0 -125,56 -125,125 0,69 56,125 125,125 69,0 125,-56 125,-125 0,-69 -56,-125 -125,-125z"
       id="path174" /><path
       class="fil1"
       d="M25135 4288c-202,0 -365,168 -365,375 0,207 163,375 365,375 202,0 365,-168 365,-375 0,-207 -163,-375 -365,-375zm0 250c-69,0 -125,56 -125,125 0,69 56,125 125,125 69,0 125,-56 125,-125 0,-69 -56,-125 -125,-125z"
       id="path176" /><path
       class="fil1"
       d="M8625 5894c-207,0 -375,168 -375,375 0,207 168,375 375,375 207,0 375,-168 375,-375 0,-207 -168,-375 -375,-375zm0 250c-71,0 -128,56 -128,125 0,69 57,125 128,125 71,0 128,-56 128,-125 0,-69 -57,-125 -128,-125z"
       id="path178" /><path
       class="fil1"
       d="M11875 3788c-207,0 -375,168 -375,375 0,207 168,375 375,375 207,0 375,-168 375,-375 0,-207 -168,-375 -375,-375zm0 250c-71,0 -128,56 -128,125 0,69 57,125 128,125 71,0 128,-56 128,-125 0,-69 -57,-125 -128,-125z"
       id="path180" /><path
       class="fil1"
       d="M11875 2788c-207,0 -375,168 -375,375 0,207 168,375 375,375 207,0 375,-168 375,-375 0,-207 -168,-375 -375,-375zm0 250c-71,0 -128,56 -128,125 0,69 57,125 128,125 71,0 128,-56 128,-125 0,-69 -57,-125 -128,-125z"
       id="path182" /><path
       class="fil1"
       d="M11875 1787c-207,0 -375,168 -375,375 0,208 168,375 375,375 207,0 375,-167 375,-375 0,-207 -168,-375 -375,-375zm0 250c-71,0 -128,56 -128,125 0,69 57,125 128,125 71,0 128,-56 128,-125 0,-69 -57,-125 -128,-125z"
       id="path184" /><path
       class="fil1"
       d="M11875 4788c-207,0 -375,168 -375,375 0,207 168,375 375,375 207,0 375,-168 375,-375 0,-207 -168,-375 -375,-375zm0 250c-71,0 -128,56 -128,125 0,69 57,125 128,125 71,0 128,-56 128,-125 0,-69 -57,-125 -128,-125z"
       id="path186" /><path
       class="fil1"
       d="M13125 5038c-207,0 -375,168 -375,375 0,207 168,375 375,375 207,0 375,-168 375,-375 0,-207 -168,-375 -375,-375zm0 250c-71,0 -128,56 -128,125 0,69 57,125 128,125 71,0 128,-56 128,-125 0,-69 -57,-125 -128,-125z"
       id="path188" /><path
       class="fil1"
       d="M20125 3553c-207,0 -375,168 -375,375 0,207 168,375 375,375 207,0 375,-168 375,-375 0,-207 -168,-375 -375,-375zm0 250c-71,0 -128,56 -128,125 0,69 57,125 128,125 71,0 128,-56 128,-125 0,-69 -57,-125 -128,-125z"
       id="path190" /><path
       class="fil1"
       d="M21125 3038c-207,0 -375,168 -375,375 0,207 168,375 375,375 207,0 375,-168 375,-375 0,-207 -168,-375 -375,-375zm0 250c-71,0 -128,56 -128,125 0,69 57,125 128,125 71,0 128,-56 128,-125 0,-69 -57,-125 -128,-125z"
       id="path192" /><path
       class="fil1"
       d="M21125 2038c-207,0 -375,168 -375,375 0,207 168,375 375,375 207,0 375,-168 375,-375 0,-207 -168,-375 -375,-375zm0 250c-71,0 -128,56 -128,125 0,69 57,125 128,125 71,0 128,-56 128,-125 0,-69 -57,-125 -128,-125z"
       id="path194" /><rect
       class="fil1"
       x="12000"
       y="2038"
       width="7558"
       height="250"
       id="rect196" /><rect
       class="fil1"
       x="12000"
       y="3038"
       width="7500"
       height="250"
       id="rect198" /><rect
       class="fil1"
       x="12250"
       y="3538"
       width="6750"
       height="250"
       id="rect200" /><rect
       class="fil1"
       x="19955"
       y="2538"
       width="545"
       height="250"
       id="rect202" /><rect
       class="fil1"
       x="19500"
       y="1539"
       width="1000"
       height="250"
       id="rect204" /><rect
       class="fil1"
       x="24085"
       y="13965"
       width="754"
       height="250"
       id="rect206" /><rect
       class="fil1"
       x="23500"
       y="3788"
       width="2750"
       height="261"
       id="rect208" /><rect
       class="fil1"
       x="23500"
       y="12288"
       width="2000"
       height="261"
       id="rect210" /><rect
       class="fil1"
       x="8250"
       y="10538"
       width="750"
       height="250"
       id="rect212" /><rect
       class="fil1"
       x="8250"
       y="13538"
       width="1029"
       height="250"
       id="rect214" /><rect
       class="fil1"
       x="9750"
       y="14288"
       width="279"
       height="4000"
       id="rect216" /><rect
       class="fil1"
       x="10500"
       y="13538"
       width="279"
       height="4750"
       id="rect218" /><rect
       class="fil1"
       x="11250"
       y="14041"
       width="250"
       height="4247"
       id="rect220" /><rect
       class="fil1"
       x="14375"
       y="16538"
       width="250"
       height="1750"
       id="rect222" /><rect
       class="fil1"
       x="11965"
       y="15788"
       width="1910"
       height="250"
       id="rect224" /><rect
       class="fil1"
       x="14098"
       y="13788"
       width="1152"
       height="250"
       id="rect226" /><rect
       class="fil1"
       x="13215"
       y="14288"
       width="486"
       height="250"
       id="rect228" /><rect
       class="fil1"
       x="15750"
       y="14538"
       width="250"
       height="3750"
       id="rect230" /><rect
       class="fil1"
       x="17000"
       y="16913"
       width="250"
       height="1375"
       id="rect232" /><rect
       class="fil1"
       x="20250"
       y="15788"
       width="250"
       height="2500"
       id="rect234" /><rect
       class="fil1"
       x="21000"
       y="16038"
       width="250"
       height="2250"
       id="rect236" /><rect
       class="fil1"
       x="21750"
       y="16288"
       width="250"
       height="2000"
       id="rect238" /><rect
       class="fil1"
       x="22500"
       y="16538"
       width="279"
       height="1750"
       id="rect240" /><rect
       class="fil1"
       x="23250"
       y="16788"
       width="279"
       height="1500"
       id="rect242" /><rect
       class="fil1"
       x="24000"
       y="17038"
       width="279"
       height="1250"
       id="rect244" /><rect
       class="fil1"
       x="16250"
       y="14697"
       width="250"
       height="1466"
       id="rect246" /><rect
       class="fil1"
       x="20309"
       y="12960"
       width="279"
       height="870"
       id="rect248" /><rect
       class="fil1"
       x="21000"
       y="13038"
       width="279"
       height="2079"
       id="rect250" /><rect
       class="fil1"
       x="21750"
       y="12809"
       width="279"
       height="2479"
       id="rect252" /><rect
       class="fil1"
       x="22500"
       y="14109"
       width="279"
       height="1429"
       id="rect254" /><rect
       class="fil1"
       x="23250"
       y="14715"
       width="279"
       height="1073"
       id="rect256" /><rect
       class="fil1"
       x="9500"
       y="4786"
       width="250"
       height="759"
       id="rect258" /><rect
       class="fil1"
       x="10000"
       y="4642"
       width="250"
       height="1218"
       id="rect260" /><polygon
       class="fil1"
       points="10663,2038 9913,1288 10267,1288 11017,2038 "
       id="polygon262" /><polygon
       class="fil1"
       points="11500,2038 10750,1288 10750,934 11854,2038 "
       id="polygon264" /><polygon
       class="fil1"
       points="19500,1789 18750,1039 18750,685 19854,1789 "
       id="polygon266" /><polygon
       class="fil1"
       points="19955,2788 19205,2038 19558,2038 20308,2788 "
       id="polygon268" /><polygon
       class="fil1"
       points="19896,3788 19146,3038 19500,3038 20250,3788 "
       id="polygon270" /><polygon
       class="fil1"
       points="19396,4288 18646,3538 19000,3538 19573,4111 "
       id="polygon272" /><polygon
       class="fil1"
       points="7896,9038 7146,8288 7500,8288 8073,8861 "
       id="polygon274" /><polygon
       class="fil1"
       points="7896,10538 7146,9788 7500,9788 8250,10538 "
       id="polygon276" /><polygon
       class="fil1"
       points="8146,12288 7146,11288 7500,11288 8500,12288 "
       id="polygon278" /><polygon
       class="fil1"
       points="7896,15038 7146,14288 7500,14288 8073,14861 "
       id="polygon280" /><polygon
       class="fil1"
       points="7896,16538 7146,15788 7500,15788 8073,16361 "
       id="polygon282" /><polygon
       class="fil1"
       points="26896,4038 26146,3288 26500,3288 27250,4038 "
       id="polygon284" /><polygon
       class="fil1"
       points="26646,4538 25896,3788 26250,3788 27000,4538 "
       id="polygon286" /><polygon
       class="fil1"
       points="26896,6038 26146,5288 26500,5288 27250,6038 "
       id="polygon288" /><polygon
       class="fil1"
       points="25604,7538 26354,6788 26000,6788 25250,7538 "
       id="polygon290" /><polygon
       class="fil1"
       points="25604,12538 26354,11788 26000,11788 25250,12538 "
       id="polygon292" /><polygon
       class="fil1"
       points="14625,16892 13521,15788 13875,15788 14625,16538 "
       id="polygon294" /><polygon
       class="fil1"
       points="16000,14892 14896,13788 15250,13788 16000,14538 "
       id="polygon296" /><polygon
       class="fil1"
       points="13702,14538 14452,13788 14098,13788 13348,14538 "
       id="polygon298" /><polygon
       class="fil1"
       points="17000,16913 16250,16163 16250,15809 17250,16809 17250,16913 "
       id="polygon300" /><polygon
       class="fil1"
       points="21750,16642 22779,15613 22779,15538 22500,15538 21750,16288 "
       id="polygon302" /><polygon
       class="fil1"
       points="22500,16865 23529,15848 23529,15770 23250,15788 22500,16538 "
       id="polygon304" /><polygon
       class="fil1"
       points="21000,16392 22029,15363 22029,15288 21750,15288 21000,16038 "
       id="polygon306" /><polygon
       class="fil1"
       points="20250,16142 21279,15117 21279,15038 21000,15038 20250,15788 "
       id="polygon308" /><polygon
       class="fil1"
       points="10029,14642 8925,13538 9279,13538 10029,14288 "
       id="polygon310" /><polygon
       class="fil1"
       points="8146,10788 7146,9788 7500,9788 8500,10788 "
       id="polygon312" /><polygon
       class="fil1"
       points="8146,13788 7146,12788 7500,12788 8500,13788 "
       id="polygon314" /><polygon
       class="fil1"
       points="10029,13142 8925,12038 9279,12038 10029,12788 "
       id="polygon316" /><polygon
       class="fil1"
       points="10779,13892 9675,12788 10029,12788 10779,13538 "
       id="polygon318" /><rect
       class="fil1"
       x="8250"
       y="12038"
       width="1029"
       height="250"
       id="rect320" /><path
       class="fil1"
       d="M8625 11038c-207,0 -375,168 -375,375 0,207 168,375 375,375 207,0 375,-168 375,-375 0,-207 -168,-375 -375,-375zm0 250c-71,0 -128,56 -128,125 0,69 57,125 128,125 71,0 128,-56 128,-125 0,-69 -57,-125 -128,-125z"
       id="path322" /><polygon
       class="fil1"
       points="11413,2788 10663,2038 11017,2038 11767,2788 "
       id="polygon324" /><polygon
       class="fil1"
       points="10146,2538 9396,1788 9750,1788 10500,2538 "
       id="polygon326" /><polygon
       class="fil1"
       points="10896,3288 10146,2538 10500,2538 11250,3288 "
       id="polygon328" /><polygon
       class="fil1"
       points="9396,4038 8646,3288 9000,3288 9750,4038 "
       id="polygon330" /><polygon
       class="fil1"
       points="11000,4538 10250,3788 10604,3788 11354,4538 "
       id="polygon332" /><polygon
       class="fil1"
       points="10250,3788 9500,3038 9854,3038 10604,3788 "
       id="polygon334" /><polygon
       class="fil1"
       points="9500,3038 8750,2288 9104,2288 9854,3038 "
       id="polygon336" /><polygon
       class="fil1"
       points="11747,4139 10647,3038 11000,3038 11750,3788 "
       id="polygon338" /><polygon
       class="fil1"
       points="11726,5264 10625,4163 10979,4163 11729,4913 "
       id="polygon340" /><polygon
       class="fil1"
       points="11779,3153 10678,2053 11032,2053 11782,2803 "
       id="polygon342" /><polygon
       class="fil1"
       points="21384,2284 22134,1534 21780,1534 21030,2284 "
       id="polygon344" /><polygon
       class="fil1"
       points="22104,2538 22854,1788 22500,1788 21750,2538 "
       id="polygon346" /><polygon
       class="fil1"
       points="22875,3038 23625,2288 23271,2288 22521,3038 "
       id="polygon348" /><polygon
       class="fil1"
       points="11987,4155 12604,3538 12250,3538 11984,3804 "
       id="polygon350" /><polygon
       class="fil1"
       points="20896,3288 20146,2538 20500,2538 21250,3288 "
       id="polygon352" /><polygon
       class="fil1"
       points="20896,2289 20146,1539 20500,1539 21250,2289 "
       id="polygon354" /><polygon
       class="fil1"
       points="24335,16057 25085,15307 24900,15138 23981,16057 "
       id="polygon356" /><polygon
       class="fil1"
       points="24000,17392 25104,16288 24925,16113 24000,17038 "
       id="polygon358" /><polygon
       class="fil1"
       points="19913,14580 20588,13905 20588,13830 20309,13830 19559,14580 "
       id="polygon360" /><polygon
       class="fil1"
       points="23250,15068 24354,13965 24000,13965 23250,14715 "
       id="polygon362" /><rect
       class="fil1"
       x="23676"
       y="12979"
       width="1163"
       height="250"
       id="rect364" /><polygon
       class="fil1"
       points="23234,13729 23984,12979 23630,12979 22880,13729 "
       id="polygon366" /><polygon
       class="fil1"
       points="22500,14463 23604,13359 23250,13359 22500,14109 "
       id="polygon368" /><polygon
       class="fil1"
       points="10250,4892 9396,4038 9750,4038 10250,4538 "
       id="polygon370" /><polygon
       class="fil1"
       points="9250,4538 8500,3788 8854,3788 9604,4538 "
       id="polygon372" /><polygon
       class="fil1"
       points="9498,4786 8748,4036 9102,4036 9750,4684 9750,4786 "
       id="polygon374" /><rect
       class="fil1"
       x="18816"
       y="13521"
       width="697"
       height="250"
       id="rect376" /><polygon
       class="fil1"
       points="23250,17142 24354,16038 24175,15863 23250,16788 "
       id="polygon378" /><polygon
       class="fil1"
       points="19455,15038 20205,14288 19851,14288 19101,15038 "
       id="polygon380" /><polygon
       class="fil1"
       points="18000,14638 19104,13521 18750,13521 18000,14271 "
       id="polygon382" /><polygon
       class="fil1"
       points="16250,15038 17264,14030 17264,13947 17000,13947 16250,14697 "
       id="polygon384" /><rect
       class="fil1"
       x="12750"
       y="15038"
       width="1250"
       height="250"
       id="rect386" /><rect
       class="fil1"
       transform="matrix(5.72537E-015 -0.549511 1 6.73221E-014 12000 14538)"
       width="2250"
       height="250"
       id="rect388" /><rect
       class="fil1"
       x="19000"
       y="15426"
       width="250"
       height="2862"
       id="rect390" /><path
       class="fil1"
       d="M13125 16288c-207,0 -375,168 -375,375 0,207 168,375 375,375 207,0 375,-168 375,-375 0,-207 -168,-375 -375,-375zm0 250c-71,0 -128,56 -128,125 0,69 57,125 128,125 71,0 128,-56 128,-125 0,-69 -57,-125 -128,-125z"
       id="path392" /><polygon
       class="fil1"
       points="12750,15288 12000,14538 12000,14184 13104,15288 "
       id="polygon394" /><rect
       class="fil1"
       x="18000"
       y="14271"
       width="250"
       height="733"
       id="rect396" /><rect
       class="fil1"
       x="16986"
       y="12960"
       width="279"
       height="986"
       id="rect398" /><polygon
       class="fil1"
       points="21870,1798 22620,1048 22266,1048 21516,1798 "
       id="polygon400" /><polygon
       class="fil1"
       points="21354,3288 22104,2538 21750,2538 21000,3288 "
       id="polygon402" /><polygon
       class="fil1"
       points="22125,3788 22875,3038 22521,3038 21771,3788 "
       id="polygon404" /><polygon
       class="fil1"
       points="21375,4538 22125,3788 21771,3788 21198,4361 "
       id="polygon406" /><polygon
       class="fil1"
       points="23104,4538 23854,3788 23500,3788 22750,4538 "
       id="polygon408" /><polygon
       class="fil1"
       points="22354,5288 23104,4538 22750,4538 22177,5111 "
       id="polygon410" /><polygon
       class="fil2"
       points="269,538 3731,538 4269,0 0,0 0,269 "
       id="polygon412" /><polygon
       class="fil2"
       points="5769,538 9231,538 9769,0 5231,0 "
       id="polygon414" /><polygon
       class="fil2"
       points="20519,538 23981,538 24519,0 19981,0 "
       id="polygon416" /><polygon
       class="fil2"
       points="26269,538 29731,538 30269,0 25731,0 "
       id="polygon418" /><polygon
       class="fil2"
       points="31769,538 32512,538 32512,0 31231,0 "
       id="polygon420" /><polygon
       class="fil2"
       points="5250,16788 1788,16788 1019,17557 1019,18288 6019,18288 6019,17557 "
       id="polygon422" /><polygon
       class="fil2"
       points="28038,12538 27000,13576 27000,18288 32512,18288 32512,12538 "
       id="polygon424" /><polygon
       class="fil3"
       points="20160,3413 12340,3413 10500,5253 10500,13073 12340,14913 20160,14913 22000,13073 22000,5253 "
       id="polygon431" /></g><g
     id="Layer_x0020_5"
     visibility="hidden"><metadata
       id="CorelCorpID_2Corel-Layer" /><g
       style="clip-path:url(#id1)"
       id="g435"
       clip-path="url(#id1)" /></g></svg>