<?xml version="1.0" encoding="UTF-8"?>
<!DOCTYPE svg PUBLIC "-//W3C//DTD SVG 1.1//EN" "http://www.w3.org/Graphics/SVG/1.1/DTD/svg11.dtd">
<!-- Creator: CorelDRAW X7 -->
<svg xmlns="http://www.w3.org/2000/svg" xml:space="preserve" width="50mm" height="50mm" version="1.1" style="shape-rendering:geometricPrecision; text-rendering:geometricPrecision; image-rendering:optimizeQuality; fill-rule:evenodd; clip-rule:evenodd"
viewBox="0 0 1317 1317"
 xmlns:xlink="http://www.w3.org/1999/xlink">
 <defs>
  <style type="text/css">
   <![CDATA[
    .fil45 {fill:#2196F3}
    .fil44 {fill:#2296F0}
    .fil46 {fill:#2394F2}
    .fil43 {fill:#2397EC}
    .fil42 {fill:#2498E9}
    .fil41 {fill:#2598E5}
    .fil47 {fill:#2692F0}
    .fil40 {fill:#2699E2}
    .fil39 {fill:#2799DE}
    .fil38 {fill:#279ADA}
    .fil48 {fill:#2890EF}
    .fil37 {fill:#289AD7}
    .fil36 {fill:#299BD3}
    .fil49 {fill:#2A8EEE}
    .fil35 {fill:#2A9BD0}
    .fil34 {fill:#2B9CCC}
    .fil50 {fill:#2C8CED}
    .fil33 {fill:#2C9CC9}
    .fil32 {fill:#2D9DC5}
    .fil51 {fill:#2E8AEC}
    .fil31 {fill:#2E9EC2}
    .fil30 {fill:#2F9EBE}
    .fil29 {fill:#309FBB}
    .fil52 {fill:#3188EB}
    .fil28 {fill:#319FB7}
    .fil27 {fill:#32A0B3}
    .fil53 {fill:#3386E9}
    .fil26 {fill:#33A0B0}
    .fil25 {fill:#34A1AC}
    .fil54 {fill:#3584E8}
    .fil24 {fill:#35A1A9}
    .fil22 {fill:#36A2A2}
    .fil23 {fill:#36A2A5}
    .fil55 {fill:#3782E7}
    .fil21 {fill:#37A39E}
    .fil20 {fill:#38A49B}
    .fil56 {fill:#3980E6}
    .fil19 {fill:#39A497}
    .fil18 {fill:#3AA593}
    .fil17 {fill:#3BA590}
    .fil57 {fill:#3C7EE5}
    .fil16 {fill:#3CA68C}
    .fil15 {fill:#3DA689}
    .fil58 {fill:#3E7CE3}
    .fil14 {fill:#3EA785}
    .fil13 {fill:#3FA782}
    .fil59 {fill:#407AE2}
    .fil12 {fill:#40A87E}
    .fil11 {fill:#41A87B}
    .fil60 {fill:#4278E1}
    .fil10 {fill:#42A977}
    .fil9 {fill:#43AA74}
    .fil61 {fill:#4476E0}
    .fil8 {fill:#44AA70}
    .fil6 {fill:#45AB69}
    .fil7 {fill:#45AB6C}
    .fil62 {fill:#4674DF}
    .fil5 {fill:#46AC65}
    .fil4 {fill:#47AC62}
    .fil3 {fill:#48AD5E}
    .fil63 {fill:#4972DD}
    .fil2 {fill:#49AD5B}
    .fil1 {fill:#4AAE57}
    .fil64 {fill:#4B70DC}
    .fil0 {fill:#4BAE54}
    .fil254 {fill:#4CAF50}
    .fil65 {fill:#4D6EDB}
    .fil66 {fill:#4F6CDA}
    .fil253 {fill:#50B050}
    .fil67 {fill:#516AD9}
    .fil68 {fill:#5468D7}
    .fil252 {fill:#54B24F}
    .fil69 {fill:#5666D6}
    .fil70 {fill:#5864D5}
    .fil251 {fill:#58B34F}
    .fil71 {fill:#5A62D4}
    .fil72 {fill:#5C60D3}
    .fil250 {fill:#5CB44E}
    .fil73 {fill:#5F5ED1}
    .fil249 {fill:#5FB64E}
    .fil74 {fill:#615CD0}
    .fil75 {fill:#635ACF}
    .fil248 {fill:#63B74D}
    .fil76 {fill:#6558CE}
    .fil77 {fill:#6756CD}
    .fil247 {fill:#67B84D}
    .fil78 {fill:#6A55CB}
    .fil246 {fill:#6BB94C}
    .fil79 {fill:#6C53CA}
    .fil80 {fill:#6E51C9}
    .fil245 {fill:#6FBB4C}
    .fil81 {fill:#704FC8}
    .fil82 {fill:#724DC7}
    .fil244 {fill:#73BC4B}
    .fil83 {fill:#754BC5}
    .fil84 {fill:#7749C4}
    .fil243 {fill:#77BD4B}
    .fil85 {fill:#7947C3}
    .fil86 {fill:#7B45C2}
    .fil242 {fill:#7BBF4B}
    .fil87 {fill:#7D43C1}
    .fil88 {fill:#7F41C0}
    .fil241 {fill:#7FC04A}
    .fil89 {fill:#823FBE}
    .fil240 {fill:#83C14A}
    .fil90 {fill:#843DBD}
    .fil91 {fill:#863BBC}
    .fil239 {fill:#86C349}
    .fil92 {fill:#8839BB}
    .fil93 {fill:#8A37BA}
    .fil238 {fill:#8AC449}
    .fil94 {fill:#8D35B8}
    .fil237 {fill:#8EC548}
    .fil95 {fill:#8F33B7}
    .fil96 {fill:#9131B6}
    .fil236 {fill:#92C748}
    .fil97 {fill:#932FB5}
    .fil98 {fill:#952DB4}
    .fil235 {fill:#96C847}
    .fil99 {fill:#982BB2}
    .fil100 {fill:#9A29B1}
    .fil234 {fill:#9AC947}
    .fil101 {fill:#9C27B0}
    .fil102 {fill:#9E26AD}
    .fil233 {fill:#9ECA46}
    .fil103 {fill:#9F26AA}
    .fil104 {fill:#A125A7}
    .fil232 {fill:#A2CC46}
    .fil105 {fill:#A325A5}
    .fil106 {fill:#A424A2}
    .fil107 {fill:#A6249F}
    .fil231 {fill:#A6CD45}
    .fil108 {fill:#A7239C}
    .fil109 {fill:#A92399}
    .fil230 {fill:#AACE45}
    .fil110 {fill:#AB2296}
    .fil111 {fill:#AC2293}
    .fil229 {fill:#ADD045}
    .fil112 {fill:#AE2190}
    .fil113 {fill:#B0218E}
    .fil114 {fill:#B1208B}
    .fil228 {fill:#B1D144}
    .fil115 {fill:#B32088}
    .fil116 {fill:#B51F85}
    .fil227 {fill:#B5D244}
    .fil117 {fill:#B61E82}
    .fil118 {fill:#B81E7F}
    .fil226 {fill:#B9D443}
    .fil119 {fill:#BA1D7C}
    .fil120 {fill:#BB1D79}
    .fil121 {fill:#BD1C77}
    .fil225 {fill:#BDD543}
    .fil122 {fill:#BE1C74}
    .fil123 {fill:#C01B71}
    .fil224 {fill:#C1D642}
    .fil124 {fill:#C21B6E}
    .fil125 {fill:#C31A6B}
    .fil126 {fill:#C51A68}
    .fil223 {fill:#C5D842}
    .fil127 {fill:#C71965}
    .fil128 {fill:#C81963}
    .fil222 {fill:#C9D941}
    .fil129 {fill:#CA1860}
    .fil130 {fill:#CC175D}
    .fil131 {fill:#CD175A}
    .fil221 {fill:#CDDA41}
    .fil132 {fill:#CF1657}
    .fil133 {fill:#D01654}
    .fil220 {fill:#D1DB40}
    .fil134 {fill:#D21551}
    .fil135 {fill:#D4154E}
    .fil219 {fill:#D4DD40}
    .fil136 {fill:#D5144C}
    .fil137 {fill:#D71449}
    .fil218 {fill:#D8DE40}
    .fil138 {fill:#D91346}
    .fil139 {fill:#DA1343}
    .fil140 {fill:#DC1240}
    .fil217 {fill:#DCDF3F}
    .fil141 {fill:#DE123D}
    .fil142 {fill:#DF113A}
    .fil216 {fill:#E0E13F}
    .fil143 {fill:#E11137}
    .fil144 {fill:#E31035}
    .fil145 {fill:#E40F32}
    .fil215 {fill:#E4E23E}
    .fil146 {fill:#E60F2F}
    .fil147 {fill:#E70E2C}
    .fil214 {fill:#E8E33E}
    .fil148 {fill:#E90E29}
    .fil149 {fill:#EB0D26}
    .fil150 {fill:#EC0D23}
    .fil213 {fill:#ECE53D}
    .fil151 {fill:#EE0C21}
    .fil152 {fill:#F00C1E}
    .fil212 {fill:#F0E63D}
    .fil153 {fill:#F10B1B}
    .fil154 {fill:#F30B18}
    .fil211 {fill:#F4E73C}
    .fil155 {fill:#F50A15}
    .fil156 {fill:#F60A12}
    .fil157 {fill:#F8090F}
    .fil158 {fill:#F80D10}
    .fil159 {fill:#F81111}
    .fil160 {fill:#F81612}
    .fil210 {fill:#F8E93C}
    .fil161 {fill:#F91A12}
    .fil162 {fill:#F91F13}
    .fil163 {fill:#F92314}
    .fil164 {fill:#F92815}
    .fil165 {fill:#F92C16}
    .fil166 {fill:#F93017}
    .fil167 {fill:#F93518}
    .fil168 {fill:#F93918}
    .fil169 {fill:#FA3E19}
    .fil170 {fill:#FA421A}
    .fil171 {fill:#FA471B}
    .fil172 {fill:#FA4B1C}
    .fil173 {fill:#FA4F1D}
    .fil174 {fill:#FA541E}
    .fil175 {fill:#FA581E}
    .fil176 {fill:#FB5D1F}
    .fil177 {fill:#FB6120}
    .fil178 {fill:#FB6621}
    .fil179 {fill:#FB6A22}
    .fil180 {fill:#FB6E23}
    .fil181 {fill:#FB7324}
    .fil182 {fill:#FB7724}
    .fil209 {fill:#FBEA3B}
    .fil183 {fill:#FC7C25}
    .fil184 {fill:#FC8026}
    .fil185 {fill:#FC8527}
    .fil186 {fill:#FC8928}
    .fil187 {fill:#FC8D29}
    .fil188 {fill:#FC922A}
    .fil189 {fill:#FC962B}
    .fil190 {fill:#FD9B2B}
    .fil191 {fill:#FD9F2C}
    .fil192 {fill:#FDA42D}
    .fil193 {fill:#FDA82E}
    .fil194 {fill:#FDAD2F}
    .fil195 {fill:#FDB130}
    .fil196 {fill:#FDB531}
    .fil197 {fill:#FDBA31}
    .fil198 {fill:#FEBE32}
    .fil199 {fill:#FEC333}
    .fil200 {fill:#FEC734}
    .fil201 {fill:#FECC35}
    .fil202 {fill:#FED036}
    .fil203 {fill:#FED437}
    .fil204 {fill:#FED937}
    .fil205 {fill:#FFDD38}
    .fil206 {fill:#FFE239}
    .fil207 {fill:#FFE63A}
    .fil208 {fill:#FFEB3B}
   ]]>
  </style>
    <clipPath id="id0">
     <path d="M659 0c363,0 658,295 658,659 0,363 -295,658 -658,658 -364,0 -659,-295 -659,-658 0,-364 295,-659 659,-659zm0 263c218,0 395,177 395,396 0,218 -177,395 -395,395 -219,0 -396,-177 -396,-395 0,-219 177,-396 396,-396z"/>
    </clipPath>
 </defs>
 <g id="Layer_x0020_1">
  <metadata id="CorelCorpID_0Corel-Layer"/>
  <g>
   <g style="clip-path:url(#id0)">
    <polygon class="fil0" points="659,659 653,1590 619,1589 "/>
    <polygon id="1" class="fil1" points="659,659 624,1589 596,1588 "/>
    <polygon id="2" class="fil2" points="659,659 601,1588 573,1586 "/>
    <polygon id="3" class="fil3" points="659,659 579,1587 550,1584 "/>
    <polygon id="4" class="fil4" points="659,659 556,1584 528,1581 "/>
    <polygon id="5" class="fil5" points="659,659 533,1582 505,1577 "/>
    <polygon id="6" class="fil6" points="659,659 511,1578 482,1573 "/>
    <polygon id="7" class="fil7" points="659,659 488,1574 460,1569 "/>
    <polygon id="8" class="fil8" points="659,659 466,1570 438,1564 "/>
    <polygon id="9" class="fil9" points="659,659 443,1565 416,1558 "/>
    <polygon id="10" class="fil10" points="659,659 421,1559 394,1552 "/>
    <polygon id="11" class="fil11" points="659,659 399,1553 372,1545 "/>
    <polygon id="12" class="fil12" points="659,659 377,1547 350,1538 "/>
    <polygon id="13" class="fil13" points="659,659 356,1539 329,1530 "/>
    <polygon id="14" class="fil14" points="659,659 334,1532 307,1521 "/>
    <polygon id="15" class="fil15" points="659,659 313,1523 286,1512 "/>
    <polygon id="16" class="fil16" points="659,659 292,1515 265,1503 "/>
    <polygon id="17" class="fil17" points="659,659 271,1505 245,1493 "/>
    <polygon id="18" class="fil18" points="659,659 250,1496 225,1483 "/>
    <polygon id="19" class="fil19" points="659,659 230,1485 204,1472 "/>
    <polygon id="20" class="fil20" points="659,659 209,1475 185,1460 "/>
    <polygon id="21" class="fil21" points="659,659 190,1463 165,1449 "/>
    <polygon id="22" class="fil22" points="659,659 170,1452 146,1436 "/>
    <polygon id="23" class="fil23" points="659,659 151,1439 127,1423 "/>
    <polygon id="24" class="fil24" points="659,659 132,1427 108,1410 "/>
    <polygon id="25" class="fil25" points="659,659 113,1413 90,1396 "/>
    <polygon id="26" class="fil26" points="659,659 95,1400 72,1382 "/>
    <polygon id="27" class="fil27" points="659,659 77,1386 54,1368 "/>
    <polygon id="28" class="fil28" points="659,659 59,1371 37,1353 "/>
    <polygon id="29" class="fil29" points="659,659 42,1356 20,1337 "/>
    <polygon id="30" class="fil30" points="659,659 25,1341 4,1321 "/>
    <polygon id="31" class="fil31" points="659,659 8,1325 -12,1305 "/>
    <polygon id="32" class="fil32" points="659,659 -8,1309 -28,1288 "/>
    <polygon id="33" class="fil33" points="659,659 -24,1293 -43,1271 "/>
    <polygon id="34" class="fil34" points="659,659 -39,1276 -58,1254 "/>
    <polygon id="35" class="fil35" points="659,659 -54,1258 -72,1236 "/>
    <polygon id="36" class="fil36" points="659,659 -69,1241 -86,1218 "/>
    <polygon id="37" class="fil37" points="659,659 -83,1223 -100,1200 "/>
    <polygon id="38" class="fil38" points="659,659 -96,1204 -113,1181 "/>
    <polygon id="39" class="fil39" points="659,659 -109,1186 -125,1162 "/>
    <polygon id="40" class="fil40" points="659,659 -122,1167 -137,1142 "/>
    <polygon id="41" class="fil41" points="659,659 -134,1147 -149,1123 "/>
    <polygon id="42" class="fil42" points="659,659 -146,1128 -160,1103 "/>
    <polygon id="43" class="fil43" points="659,659 -157,1108 -171,1082 "/>
    <polygon id="44" class="fil44" points="659,659 -168,1088 -181,1062 "/>
    <polygon id="45" class="fil45" points="659,659 -178,1067 -191,1041 "/>
    <polygon id="46" class="fil46" points="659,659 -188,1046 -200,1020 "/>
    <polygon id="47" class="fil47" points="659,659 -198,1026 -208,999 "/>
    <polygon id="48" class="fil48" points="659,659 -206,1004 -217,978 "/>
    <polygon id="49" class="fil49" points="659,659 -215,983 -224,956 "/>
    <polygon id="50" class="fil50" points="659,659 -222,962 -231,934 "/>
    <polygon id="51" class="fil51" points="659,659 -229,940 -238,913 "/>
    <polygon id="52" class="fil52" points="659,659 -236,918 -244,890 "/>
    <polygon id="53" class="fil53" points="659,659 -242,896 -249,868 "/>
    <polygon id="54" class="fil54" points="659,659 -248,874 -254,846 "/>
    <polygon id="55" class="fil55" points="659,659 -253,851 -258,823 "/>
    <polygon id="56" class="fil56" points="659,659 -257,829 -262,801 "/>
    <polygon id="57" class="fil57" points="659,659 -261,807 -265,778 "/>
    <polygon id="58" class="fil58" points="659,659 -264,784 -268,756 "/>
    <polygon id="59" class="fil59" points="659,659 -267,761 -270,733 "/>
    <polygon id="60" class="fil60" points="659,659 -269,738 -272,710 "/>
    <polygon id="61" class="fil61" points="659,659 -271,716 -273,687 "/>
    <polygon id="62" class="fil62" points="659,659 -272,693 -273,664 "/>
    <polygon id="63" class="fil63" points="659,659 -273,670 -273,641 "/>
    <polygon id="64" class="fil64" points="659,659 -273,647 -272,619 "/>
    <polygon id="65" class="fil65" points="659,659 -272,624 -271,596 "/>
    <polygon id="66" class="fil66" points="659,659 -271,601 -269,573 "/>
    <polygon id="67" class="fil67" points="659,659 -269,579 -267,550 "/>
    <polygon id="68" class="fil68" points="659,659 -267,556 -264,528 "/>
    <polygon id="69" class="fil69" points="659,659 -264,533 -260,505 "/>
    <polygon id="70" class="fil70" points="659,659 -261,511 -256,482 "/>
    <polygon id="71" class="fil71" points="659,659 -257,488 -252,460 "/>
    <polygon id="72" class="fil72" points="659,659 -253,466 -246,438 "/>
    <polygon id="73" class="fil73" points="659,659 -248,443 -241,416 "/>
    <polygon id="74" class="fil74" points="659,659 -242,421 -234,394 "/>
    <polygon id="75" class="fil75" points="659,659 -236,399 -228,372 "/>
    <polygon id="76" class="fil76" points="659,659 -229,377 -220,350 "/>
    <polygon id="77" class="fil77" points="659,659 -222,356 -213,329 "/>
    <polygon id="78" class="fil78" points="659,659 -215,334 -204,307 "/>
    <polygon id="79" class="fil79" points="659,659 -206,313 -195,286 "/>
    <polygon id="80" class="fil80" points="659,659 -198,292 -186,265 "/>
    <polygon id="81" class="fil81" points="659,659 -188,271 -176,245 "/>
    <polygon id="82" class="fil82" points="659,659 -178,250 -166,225 "/>
    <polygon id="83" class="fil83" points="659,659 -168,230 -155,204 "/>
    <polygon id="84" class="fil84" points="659,659 -157,209 -143,185 "/>
    <polygon id="85" class="fil85" points="659,659 -146,190 -131,165 "/>
    <polygon id="86" class="fil86" points="659,659 -134,170 -119,146 "/>
    <polygon id="87" class="fil87" points="659,659 -122,151 -106,127 "/>
    <polygon id="88" class="fil88" points="659,659 -109,132 -93,108 "/>
    <polygon id="89" class="fil89" points="659,659 -96,113 -79,90 "/>
    <polygon id="90" class="fil90" points="659,659 -83,95 -65,72 "/>
    <polygon id="91" class="fil91" points="659,659 -69,77 -51,54 "/>
    <polygon id="92" class="fil92" points="659,659 -54,59 -35,37 "/>
    <polygon id="93" class="fil93" points="659,659 -39,42 -20,20 "/>
    <polygon id="94" class="fil94" points="659,659 -24,25 -4,4 "/>
    <polygon id="95" class="fil95" points="659,659 -8,8 12,-12 "/>
    <polygon id="96" class="fil96" points="659,659 8,-8 29,-28 "/>
    <polygon id="97" class="fil97" points="659,659 25,-24 46,-43 "/>
    <polygon id="98" class="fil98" points="659,659 42,-39 63,-58 "/>
    <polygon id="99" class="fil99" points="659,659 59,-54 81,-72 "/>
    <polygon id="100" class="fil100" points="659,659 77,-69 99,-86 "/>
    <polygon id="101" class="fil101" points="659,659 95,-83 118,-100 "/>
    <polygon id="102" class="fil102" points="659,659 113,-96 136,-113 "/>
    <polygon id="103" class="fil103" points="659,659 132,-109 155,-125 "/>
    <polygon id="104" class="fil104" points="659,659 151,-122 175,-137 "/>
    <polygon id="105" class="fil105" points="659,659 170,-134 194,-149 "/>
    <polygon id="106" class="fil106" points="659,659 190,-146 214,-160 "/>
    <polygon id="107" class="fil107" points="659,659 209,-157 235,-171 "/>
    <polygon id="108" class="fil108" points="659,659 230,-168 255,-181 "/>
    <polygon id="109" class="fil109" points="659,659 250,-178 276,-191 "/>
    <polygon id="110" class="fil110" points="659,659 271,-188 297,-200 "/>
    <polygon id="111" class="fil111" points="659,659 292,-198 318,-208 "/>
    <polygon id="112" class="fil112" points="659,659 313,-206 339,-217 "/>
    <polygon id="113" class="fil113" points="659,659 334,-214 361,-224 "/>
    <polygon id="114" class="fil114" points="659,659 356,-222 383,-231 "/>
    <polygon id="115" class="fil115" points="659,659 377,-229 405,-238 "/>
    <polygon id="116" class="fil116" points="659,659 399,-236 427,-244 "/>
    <polygon id="117" class="fil117" points="659,659 421,-242 449,-249 "/>
    <polygon id="118" class="fil118" points="659,659 443,-248 471,-254 "/>
    <polygon id="119" class="fil119" points="659,659 466,-253 494,-258 "/>
    <polygon id="120" class="fil120" points="659,659 488,-257 516,-262 "/>
    <polygon id="121" class="fil121" points="659,659 511,-261 539,-265 "/>
    <polygon id="122" class="fil122" points="659,659 533,-264 562,-268 "/>
    <polygon id="123" class="fil123" points="659,659 556,-267 584,-270 "/>
    <polygon id="124" class="fil124" points="659,659 579,-269 607,-272 "/>
    <polygon id="125" class="fil125" points="659,659 601,-271 630,-273 "/>
    <polygon id="126" class="fil126" points="659,659 624,-272 653,-273 "/>
    <polygon id="127" class="fil127" points="659,659 647,-273 676,-273 "/>
    <polygon id="128" class="fil128" points="659,659 670,-273 699,-272 "/>
    <polygon id="129" class="fil129" points="659,659 693,-272 721,-271 "/>
    <polygon id="130" class="fil130" points="659,659 716,-271 744,-269 "/>
    <polygon id="131" class="fil131" points="659,659 738,-269 767,-267 "/>
    <polygon id="132" class="fil132" points="659,659 761,-267 790,-264 "/>
    <polygon id="133" class="fil133" points="659,659 784,-264 812,-260 "/>
    <polygon id="134" class="fil134" points="659,659 807,-261 835,-256 "/>
    <polygon id="135" class="fil135" points="659,659 829,-257 857,-252 "/>
    <polygon id="136" class="fil136" points="659,659 851,-253 879,-246 "/>
    <polygon id="137" class="fil137" points="659,659 874,-248 902,-241 "/>
    <polygon id="138" class="fil138" points="659,659 896,-242 923,-234 "/>
    <polygon id="139" class="fil139" points="659,659 918,-236 945,-228 "/>
    <polygon id="140" class="fil140" points="659,659 940,-229 967,-220 "/>
    <polygon id="141" class="fil141" points="659,659 962,-222 988,-213 "/>
    <polygon id="142" class="fil142" points="659,659 983,-214 1010,-204 "/>
    <polygon id="143" class="fil143" points="659,659 1004,-206 1031,-195 "/>
    <polygon id="144" class="fil144" points="659,659 1026,-198 1052,-186 "/>
    <polygon id="145" class="fil145" points="659,659 1046,-188 1072,-176 "/>
    <polygon id="146" class="fil146" points="659,659 1067,-178 1093,-166 "/>
    <polygon id="147" class="fil147" points="659,659 1088,-168 1113,-155 "/>
    <polygon id="148" class="fil148" points="659,659 1108,-157 1133,-143 "/>
    <polygon id="149" class="fil149" points="659,659 1128,-146 1152,-131 "/>
    <polygon id="150" class="fil150" points="659,659 1147,-134 1171,-119 "/>
    <polygon id="151" class="fil151" points="659,659 1167,-122 1190,-106 "/>
    <polygon id="152" class="fil152" points="659,659 1186,-109 1209,-93 "/>
    <polygon id="153" class="fil153" points="659,659 1204,-96 1227,-79 "/>
    <polygon id="154" class="fil154" points="659,659 1223,-83 1245,-65 "/>
    <polygon id="155" class="fil155" points="659,659 1241,-69 1263,-51 "/>
    <polygon id="156" class="fil156" points="659,659 1258,-54 1280,-35 "/>
    <polygon id="157" class="fil157" points="659,659 1276,-39 1297,-20 "/>
    <polygon id="158" class="fil158" points="659,659 1293,-24 1313,-4 "/>
    <polygon id="159" class="fil159" points="659,659 1309,-8 1329,12 "/>
    <polygon id="160" class="fil160" points="659,659 1325,8 1345,29 "/>
    <polygon id="161" class="fil161" points="659,659 1341,25 1360,46 "/>
    <polygon id="162" class="fil162" points="659,659 1356,42 1375,63 "/>
    <polygon id="163" class="fil163" points="659,659 1371,59 1389,81 "/>
    <polygon id="164" class="fil164" points="659,659 1386,77 1403,99 "/>
    <polygon id="165" class="fil165" points="659,659 1400,95 1417,118 "/>
    <polygon id="166" class="fil166" points="659,659 1413,113 1430,136 "/>
    <polygon id="167" class="fil167" points="659,659 1427,132 1442,155 "/>
    <polygon id="168" class="fil168" points="659,659 1439,151 1455,175 "/>
    <polygon id="169" class="fil169" points="659,659 1452,170 1466,194 "/>
    <polygon id="170" class="fil170" points="659,659 1463,190 1477,214 "/>
    <polygon id="171" class="fil171" points="659,659 1475,209 1488,235 "/>
    <polygon id="172" class="fil172" points="659,659 1485,230 1498,255 "/>
    <polygon id="173" class="fil173" points="659,659 1496,250 1508,276 "/>
    <polygon id="174" class="fil174" points="659,659 1505,271 1517,297 "/>
    <polygon id="175" class="fil175" points="659,659 1515,292 1526,318 "/>
    <polygon id="176" class="fil176" points="659,659 1523,313 1534,339 "/>
    <polygon id="177" class="fil177" points="659,659 1532,334 1541,361 "/>
    <polygon id="178" class="fil178" points="659,659 1539,356 1548,383 "/>
    <polygon id="179" class="fil179" points="659,659 1547,377 1555,405 "/>
    <polygon id="180" class="fil180" points="659,659 1553,399 1561,427 "/>
    <polygon id="181" class="fil181" points="659,659 1559,421 1566,449 "/>
    <polygon id="182" class="fil182" points="659,659 1565,443 1571,471 "/>
    <polygon id="183" class="fil183" points="659,659 1570,466 1575,494 "/>
    <polygon id="184" class="fil184" points="659,659 1574,488 1579,516 "/>
    <polygon id="185" class="fil185" points="659,659 1578,511 1582,539 "/>
    <polygon id="186" class="fil186" points="659,659 1582,533 1585,562 "/>
    <polygon id="187" class="fil187" points="659,659 1584,556 1587,584 "/>
    <polygon id="188" class="fil188" points="659,659 1587,579 1589,607 "/>
    <polygon id="189" class="fil189" points="659,659 1588,601 1590,630 "/>
    <polygon id="190" class="fil190" points="659,659 1589,624 1590,653 "/>
    <polygon id="191" class="fil191" points="659,659 1590,647 1590,676 "/>
    <polygon id="192" class="fil192" points="659,659 1590,670 1589,699 "/>
    <polygon id="193" class="fil193" points="659,659 1589,693 1588,721 "/>
    <polygon id="194" class="fil194" points="659,659 1588,716 1586,744 "/>
    <polygon id="195" class="fil195" points="659,659 1587,738 1584,767 "/>
    <polygon id="196" class="fil196" points="659,659 1584,761 1581,790 "/>
    <polygon id="197" class="fil197" points="659,659 1582,784 1577,812 "/>
    <polygon id="198" class="fil198" points="659,659 1578,807 1573,835 "/>
    <polygon id="199" class="fil199" points="659,659 1574,829 1569,857 "/>
    <polygon id="200" class="fil200" points="659,659 1570,851 1564,879 "/>
    <polygon id="201" class="fil201" points="659,659 1565,874 1558,901 "/>
    <polygon id="202" class="fil202" points="659,659 1559,896 1552,923 "/>
    <polygon id="203" class="fil203" points="659,659 1553,918 1545,945 "/>
    <polygon id="204" class="fil204" points="659,659 1547,940 1538,967 "/>
    <polygon id="205" class="fil205" points="659,659 1539,962 1530,988 "/>
    <polygon id="206" class="fil206" points="659,659 1532,983 1521,1010 "/>
    <polygon id="207" class="fil207" points="659,659 1523,1004 1512,1031 "/>
    <polygon id="208" class="fil208" points="659,659 1515,1026 1503,1052 "/>
    <polygon id="209" class="fil209" points="659,659 1505,1046 1493,1072 "/>
    <polygon id="210" class="fil210" points="659,659 1496,1067 1483,1093 "/>
    <polygon id="211" class="fil211" points="659,659 1485,1088 1472,1113 "/>
    <polygon id="212" class="fil212" points="659,659 1475,1108 1460,1133 "/>
    <polygon id="213" class="fil213" points="659,659 1463,1128 1449,1152 "/>
    <polygon id="214" class="fil214" points="659,659 1452,1147 1436,1171 "/>
    <polygon id="215" class="fil215" points="659,659 1439,1166 1423,1190 "/>
    <polygon id="216" class="fil216" points="659,659 1427,1185 1410,1209 "/>
    <polygon id="217" class="fil217" points="659,659 1413,1204 1396,1227 "/>
    <polygon id="218" class="fil218" points="659,659 1400,1223 1382,1245 "/>
    <polygon id="219" class="fil219" points="659,659 1386,1241 1368,1263 "/>
    <polygon id="220" class="fil220" points="659,659 1371,1258 1353,1280 "/>
    <polygon id="221" class="fil221" points="659,659 1356,1276 1337,1297 "/>
    <polygon id="222" class="fil222" points="659,659 1341,1292 1321,1313 "/>
    <polygon id="223" class="fil223" points="659,659 1325,1309 1305,1329 "/>
    <polygon id="224" class="fil224" points="659,659 1309,1325 1288,1345 "/>
    <polygon id="225" class="fil225" points="659,659 1293,1341 1271,1360 "/>
    <polygon id="226" class="fil226" points="659,659 1276,1356 1254,1375 "/>
    <polygon id="227" class="fil227" points="659,659 1258,1371 1236,1389 "/>
    <polygon id="228" class="fil228" points="659,659 1241,1386 1218,1403 "/>
    <polygon id="229" class="fil229" points="659,659 1223,1400 1200,1417 "/>
    <polygon id="230" class="fil230" points="659,659 1204,1413 1181,1430 "/>
    <polygon id="231" class="fil231" points="659,659 1186,1427 1162,1442 "/>
    <polygon id="232" class="fil232" points="659,659 1167,1439 1142,1455 "/>
    <polygon id="233" class="fil233" points="659,659 1147,1452 1123,1466 "/>
    <polygon id="234" class="fil234" points="659,659 1128,1463 1103,1477 "/>
    <polygon id="235" class="fil235" points="659,659 1108,1475 1082,1488 "/>
    <polygon id="236" class="fil236" points="659,659 1088,1485 1062,1498 "/>
    <polygon id="237" class="fil237" points="659,659 1067,1496 1041,1508 "/>
    <polygon id="238" class="fil238" points="659,659 1046,1505 1020,1517 "/>
    <polygon id="239" class="fil239" points="659,659 1026,1515 999,1526 "/>
    <polygon id="240" class="fil240" points="659,659 1004,1523 978,1534 "/>
    <polygon id="241" class="fil241" points="659,659 983,1532 956,1541 "/>
    <polygon id="242" class="fil242" points="659,659 962,1539 934,1548 "/>
    <polygon id="243" class="fil243" points="659,659 940,1546 913,1555 "/>
    <polygon id="244" class="fil244" points="659,659 918,1553 890,1561 "/>
    <polygon id="245" class="fil245" points="659,659 896,1559 868,1566 "/>
    <polygon id="246" class="fil246" points="659,659 874,1565 846,1571 "/>
    <polygon id="247" class="fil247" points="659,659 851,1570 823,1575 "/>
    <polygon id="248" class="fil248" points="659,659 829,1574 801,1579 "/>
    <polygon id="249" class="fil249" points="659,659 807,1578 778,1582 "/>
    <polygon id="250" class="fil250" points="659,659 784,1582 756,1585 "/>
    <polygon id="251" class="fil251" points="659,659 761,1584 733,1587 "/>
    <polygon id="252" class="fil252" points="659,659 738,1587 710,1589 "/>
    <polygon id="253" class="fil253" points="659,659 716,1588 687,1590 "/>
    <polygon id="254" class="fil254" points="659,659 693,1589 664,1590 "/>
    <polygon id="255" class="fil254" points="659,659 670,1590 647,1590 "/>
   </g>
  </g>
 </g>
</svg>
