<?xml version="1.0" encoding="UTF-8"?>
<!DOCTYPE svg PUBLIC "-//W3C//DTD SVG 1.1//EN" "http://www.w3.org/Graphics/SVG/1.1/DTD/svg11.dtd">
<!-- Creator: CorelDRAW X7 -->
<svg xmlns="http://www.w3.org/2000/svg" xml:space="preserve" width="325.12mm" height="182.88mm" version="1.1" style="shape-rendering:geometricPrecision; text-rendering:geometricPrecision; image-rendering:optimizeQuality; fill-rule:evenodd; clip-rule:evenodd"
viewBox="0 0 32512 18288"
 xmlns:xlink="http://www.w3.org/1999/xlink">
 <defs>
  <style type="text/css">
   <![CDATA[
    .fil1 {fill:#217FCB}
    .fil2 {fill:#218ADE}
    .fil0 {fill:#2196F3}
    .fil3 {fill:#218ADE}
   ]]>
  </style>
    <clipPath id="id0">
     <path d="M9062 1976l14376 0 0 14375 -14376 0 0 -14375z"/>
    </clipPath>
   <clipPath id="id1">
    <rect x="9394" y="6644" width="13724" height="5000"/>
   </clipPath>
 </defs>
 <g id="Layer_x0020_4">
  <metadata id="CorelCorpID_0Corel-Layer"/>
  <rect class="fil0" width="32512" height="18288"/>
 </g>
 <g id="Layer_x0020_3">
  <metadata id="CorelCorpID_1Corel-Layer"/>
  <rect class="fil1" y="1288" width="10267" height="250"/>
  <rect class="fil1" y="1788" width="9750" height="250"/>
  <rect class="fil1" y="2288" width="9104" height="250"/>
  <rect class="fil1" x="10750" width="250" height="1288"/>
  <rect class="fil1" x="18750" width="250" height="1039"/>
  <rect class="fil1" y="3288" width="9000" height="250"/>
  <rect class="fil1" y="3788" width="8750" height="250"/>
  <rect class="fil1" y="4538" width="8750" height="250"/>
  <rect class="fil1" y="5788" width="6000" height="250"/>
  <rect class="fil1" y="6288" width="6000" height="250"/>
  <rect class="fil1" y="6788" width="7500" height="250"/>
  <rect class="fil1" y="8288" width="7500" height="250"/>
  <rect class="fil1" y="9788" width="7500" height="250"/>
  <rect class="fil1" y="11288" width="7500" height="250"/>
  <rect class="fil1" y="12788" width="7500" height="250"/>
  <rect class="fil1" y="14288" width="7500" height="250"/>
  <rect class="fil1" y="15788" width="7500" height="250"/>
  <rect class="fil1" x="22250" y="1038" width="10271" height="250"/>
  <rect class="fil1" x="22500" y="1788" width="10021" height="250"/>
  <rect class="fil1" x="23271" y="2288" width="9250" height="250"/>
  <rect class="fil1" x="23729" y="2788" width="8792" height="250"/>
  <rect class="fil1" x="27000" y="3788" width="5521" height="250"/>
  <rect class="fil1" x="26750" y="4288" width="5771" height="250"/>
  <rect class="fil1" x="27000" y="5783" width="5512" height="250"/>
  <rect class="fil1" x="26000" y="6788" width="6521" height="250"/>
  <rect class="fil1" x="23500" y="7787" width="9021" height="250"/>
  <rect class="fil1" x="23500" y="9288" width="9021" height="250"/>
  <rect class="fil1" x="23500" y="10781" width="9021" height="250"/>
  <rect class="fil1" x="26000" y="11788" width="6521" height="250"/>
  <rect class="fil1" x="6500" y="5288" width="2500" height="250"/>
  <polygon class="fil1" points="6000,6038 6750,5288 6396,5288 5646,6038 "/>
  <rect class="fil1" x="23500" y="7277" width="2104" height="261"/>
  <rect class="fil1" x="24500" y="5288" width="2000" height="245"/>
  <rect class="fil1" x="24179" y="3288" width="2326" height="250"/>
  <path class="fil1" d="M19770 13271c-202,0 -365,168 -365,375 0,207 163,375 365,375 202,0 365,-168 365,-375 0,-207 -163,-375 -365,-375zm0 250c-69,0 -125,56 -125,125 0,69 56,125 125,125 69,0 125,-56 125,-125 0,-69 -56,-125 -125,-125z"/>
  <path class="fil1" d="M25135 13788c-202,0 -365,168 -365,375 0,207 163,375 365,375 202,0 365,-168 365,-375 0,-207 -163,-375 -365,-375zm0 250c-69,0 -125,56 -125,125 0,69 56,125 125,125 69,0 125,-56 125,-125 0,-69 -56,-125 -125,-125z"/>
  <path class="fil1" d="M13125 1038c-207,0 -375,168 -375,375 0,207 168,375 375,375 207,0 375,-168 375,-375 0,-207 -168,-375 -375,-375zm0 250c-71,0 -128,56 -128,125 0,69 57,125 128,125 71,0 128,-56 128,-125 0,-69 -57,-125 -128,-125z"/>
  <path class="fil1" d="M14125 1038c-207,0 -375,168 -375,375 0,207 168,375 375,375 207,0 375,-168 375,-375 0,-207 -168,-375 -375,-375zm0 250c-71,0 -128,56 -128,125 0,69 57,125 128,125 71,0 128,-56 128,-125 0,-69 -57,-125 -128,-125z"/>
  <path class="fil1" d="M15125 1038c-207,0 -375,168 -375,375 0,207 168,375 375,375 207,0 375,-168 375,-375 0,-207 -168,-375 -375,-375zm0 250c-71,0 -128,56 -128,125 0,69 57,125 128,125 71,0 128,-56 128,-125 0,-69 -57,-125 -128,-125z"/>
  <path class="fil1" d="M16125 1038c-207,0 -375,168 -375,375 0,207 168,375 375,375 207,0 375,-168 375,-375 0,-207 -168,-375 -375,-375zm0 250c-71,0 -128,56 -128,125 0,69 57,125 128,125 71,0 128,-56 128,-125 0,-69 -57,-125 -128,-125z"/>
  <path class="fil1" d="M17125 1038c-207,0 -375,168 -375,375 0,207 168,375 375,375 207,0 375,-168 375,-375 0,-207 -168,-375 -375,-375zm0 250c-71,0 -128,56 -128,125 0,69 57,125 128,125 71,0 128,-56 128,-125 0,-69 -57,-125 -128,-125z"/>
  <path class="fil1" d="M18125 1038c-207,0 -375,168 -375,375 0,207 168,375 375,375 207,0 375,-168 375,-375 0,-207 -168,-375 -375,-375zm0 250c-71,0 -128,56 -128,125 0,69 57,125 128,125 71,0 128,-56 128,-125 0,-69 -57,-125 -128,-125z"/>
  <path class="fil1" d="M13125 4038c-207,0 -375,168 -375,375 0,207 168,375 375,375 207,0 375,-168 375,-375 0,-207 -168,-375 -375,-375zm0 250c-71,0 -128,56 -128,125 0,69 57,125 128,125 71,0 128,-56 128,-125 0,-69 -57,-125 -128,-125z"/>
  <path class="fil1" d="M14125 4038c-207,0 -375,168 -375,375 0,207 168,375 375,375 207,0 375,-168 375,-375 0,-207 -168,-375 -375,-375zm0 250c-71,0 -128,56 -128,125 0,69 57,125 128,125 71,0 128,-56 128,-125 0,-69 -57,-125 -128,-125z"/>
  <path class="fil1" d="M15125 4038c-207,0 -375,168 -375,375 0,207 168,375 375,375 207,0 375,-168 375,-375 0,-207 -168,-375 -375,-375zm0 250c-71,0 -128,56 -128,125 0,69 57,125 128,125 71,0 128,-56 128,-125 0,-69 -57,-125 -128,-125z"/>
  <path class="fil1" d="M16125 4038c-207,0 -375,168 -375,375 0,207 168,375 375,375 207,0 375,-168 375,-375 0,-207 -168,-375 -375,-375zm0 250c-71,0 -128,56 -128,125 0,69 57,125 128,125 71,0 128,-56 128,-125 0,-69 -57,-125 -128,-125z"/>
  <path class="fil1" d="M17125 4038c-207,0 -375,168 -375,375 0,207 168,375 375,375 207,0 375,-168 375,-375 0,-207 -168,-375 -375,-375zm0 250c-71,0 -128,56 -128,125 0,69 57,125 128,125 71,0 128,-56 128,-125 0,-69 -57,-125 -128,-125z"/>
  <path class="fil1" d="M18125 4038c-207,0 -375,168 -375,375 0,207 168,375 375,375 207,0 375,-168 375,-375 0,-207 -168,-375 -375,-375zm0 250c-71,0 -128,56 -128,125 0,69 57,125 128,125 71,0 128,-56 128,-125 0,-69 -57,-125 -128,-125z"/>
  <path class="fil1" d="M6875 5894c-207,0 -375,168 -375,375 0,207 168,375 375,375 207,0 375,-168 375,-375 0,-207 -168,-375 -375,-375zm0 250c-71,0 -128,56 -128,125 0,69 57,125 128,125 71,0 128,-56 128,-125 0,-69 -57,-125 -128,-125z"/>
  <path class="fil1" d="M6875 7288c-207,0 -375,168 -375,375 0,207 168,375 375,375 207,0 375,-168 375,-375 0,-207 -168,-375 -375,-375zm0 250c-71,0 -128,56 -128,125 0,69 57,125 128,125 71,0 128,-56 128,-125 0,-69 -57,-125 -128,-125z"/>
  <path class="fil1" d="M5875 7288c-207,0 -375,168 -375,375 0,207 168,375 375,375 207,0 375,-168 375,-375 0,-207 -168,-375 -375,-375zm0 250c-71,0 -128,56 -128,125 0,69 57,125 128,125 71,0 128,-56 128,-125 0,-69 -57,-125 -128,-125z"/>
  <path class="fil1" d="M6875 10288c-207,0 -375,168 -375,375 0,207 168,375 375,375 207,0 375,-168 375,-375 0,-207 -168,-375 -375,-375zm0 250c-71,0 -128,56 -128,125 0,69 57,125 128,125 71,0 128,-56 128,-125 0,-69 -57,-125 -128,-125z"/>
  <path class="fil1" d="M5875 10288c-207,0 -375,168 -375,375 0,207 168,375 375,375 207,0 375,-168 375,-375 0,-207 -168,-375 -375,-375zm0 250c-71,0 -128,56 -128,125 0,69 57,125 128,125 71,0 128,-56 128,-125 0,-69 -57,-125 -128,-125z"/>
  <path class="fil1" d="M6875 14788c-207,0 -375,168 -375,375 0,207 168,375 375,375 207,0 375,-168 375,-375 0,-207 -168,-375 -375,-375zm0 250c-71,0 -128,56 -128,125 0,69 57,125 128,125 71,0 128,-56 128,-125 0,-69 -57,-125 -128,-125z"/>
  <path class="fil1" d="M5875 14788c-207,0 -375,168 -375,375 0,207 168,375 375,375 207,0 375,-168 375,-375 0,-207 -168,-375 -375,-375zm0 250c-71,0 -128,56 -128,125 0,69 57,125 128,125 71,0 128,-56 128,-125 0,-69 -57,-125 -128,-125z"/>
  <path class="fil1" d="M6875 8788c-207,0 -375,168 -375,375 0,207 168,375 375,375 207,0 375,-168 375,-375 0,-207 -168,-375 -375,-375zm0 250c-71,0 -128,56 -128,125 0,69 57,125 128,125 71,0 128,-56 128,-125 0,-69 -57,-125 -128,-125z"/>
  <path class="fil1" d="M6875 11788c-207,0 -375,168 -375,375 0,207 168,375 375,375 207,0 375,-168 375,-375 0,-207 -168,-375 -375,-375zm0 250c-71,0 -128,56 -128,125 0,69 57,125 128,125 71,0 128,-56 128,-125 0,-69 -57,-125 -128,-125z"/>
  <path class="fil1" d="M6875 13288c-207,0 -375,168 -375,375 0,207 168,375 375,375 207,0 375,-168 375,-375 0,-207 -168,-375 -375,-375zm0 250c-71,0 -128,56 -128,125 0,69 57,125 128,125 71,0 128,-56 128,-125 0,-69 -57,-125 -128,-125z"/>
  <path class="fil1" d="M6875 16288c-207,0 -375,168 -375,375 0,207 168,375 375,375 207,0 375,-168 375,-375 0,-207 -168,-375 -375,-375zm0 250c-71,0 -128,56 -128,125 0,69 57,125 128,125 71,0 128,-56 128,-125 0,-69 -57,-125 -128,-125z"/>
  <path class="fil1" d="M8625 12538c-207,0 -375,168 -375,375 0,207 168,375 375,375 207,0 375,-168 375,-375 0,-207 -168,-375 -375,-375zm0 250c-71,0 -128,56 -128,125 0,69 57,125 128,125 71,0 128,-56 128,-125 0,-69 -57,-125 -128,-125z"/>
  <path class="fil1" d="M8625 14038c-207,0 -375,168 -375,375 0,207 168,375 375,375 207,0 375,-168 375,-375 0,-207 -168,-375 -375,-375zm0 250c-71,0 -128,56 -128,125 0,69 57,125 128,125 71,0 128,-56 128,-125 0,-69 -57,-125 -128,-125z"/>
  <path class="fil1" d="M8625 9538c-207,0 -375,168 -375,375 0,207 168,375 375,375 207,0 375,-168 375,-375 0,-207 -168,-375 -375,-375zm0 250c-71,0 -128,56 -128,125 0,69 57,125 128,125 71,0 128,-56 128,-125 0,-69 -57,-125 -128,-125z"/>
  <path class="fil1" d="M14125 14788c-202,0 -365,168 -365,375 0,207 163,375 365,375 202,0 365,-168 365,-375 0,-207 -163,-375 -365,-375zm0 250c-69,0 -125,56 -125,125 0,69 56,125 125,125 69,0 125,-56 125,-125 0,-69 -56,-125 -125,-125z"/>
  <path class="fil1" d="M15125 14788c-202,0 -365,168 -365,375 0,207 163,375 365,375 202,0 365,-168 365,-375 0,-207 -163,-375 -365,-375zm0 250c-69,0 -125,56 -125,125 0,69 56,125 125,125 69,0 125,-56 125,-125 0,-69 -56,-125 -125,-125z"/>
  <path class="fil1" d="M17125 14788c-202,0 -365,168 -365,375 0,207 163,375 365,375 202,0 365,-168 365,-375 0,-207 -163,-375 -365,-375zm0 250c-69,0 -125,56 -125,125 0,69 56,125 125,125 69,0 125,-56 125,-125 0,-69 -56,-125 -125,-125z"/>
  <path class="fil1" d="M18125 14788c-202,0 -365,168 -365,375 0,207 163,375 365,375 202,0 365,-168 365,-375 0,-207 -163,-375 -365,-375zm0 250c-69,0 -125,56 -125,125 0,69 56,125 125,125 69,0 125,-56 125,-125 0,-69 -56,-125 -125,-125z"/>
  <path class="fil1" d="M19113 14788c-202,0 -365,168 -365,375 0,207 163,375 365,375 201,0 365,-168 365,-375 0,-207 -164,-375 -365,-375zm0 250c-69,0 -125,56 -125,125 0,69 56,125 125,125 69,0 125,-56 125,-125 0,-69 -56,-125 -125,-125z"/>
  <path class="fil1" d="M25135 12788c-202,0 -365,168 -365,375 0,207 163,375 365,375 202,0 365,-168 365,-375 0,-207 -163,-375 -365,-375zm0 250c-69,0 -125,56 -125,125 0,69 56,125 125,125 69,0 125,-56 125,-125 0,-69 -56,-125 -125,-125z"/>
  <path class="fil1" d="M25135 14788c-202,0 -365,168 -365,375 0,207 163,375 365,375 202,0 365,-168 365,-375 0,-207 -163,-375 -365,-375zm0 250c-69,0 -125,56 -125,125 0,69 56,125 125,125 69,0 125,-56 125,-125 0,-69 -56,-125 -125,-125z"/>
  <path class="fil1" d="M25135 15788c-202,0 -365,168 -365,375 0,207 163,375 365,375 202,0 365,-168 365,-375 0,-207 -163,-375 -365,-375zm0 250c-69,0 -125,56 -125,125 0,69 56,125 125,125 69,0 125,-56 125,-125 0,-69 -56,-125 -125,-125z"/>
  <path class="fil1" d="M26135 12788c-202,0 -365,168 -365,375 0,207 163,375 365,375 202,0 365,-168 365,-375 0,-207 -163,-375 -365,-375zm0 250c-69,0 -125,56 -125,125 0,69 56,125 125,125 69,0 125,-56 125,-125 0,-69 -56,-125 -125,-125z"/>
  <path class="fil1" d="M26135 13788c-202,0 -365,168 -365,375 0,207 163,375 365,375 202,0 365,-168 365,-375 0,-207 -163,-375 -365,-375zm0 250c-69,0 -125,56 -125,125 0,69 56,125 125,125 69,0 125,-56 125,-125 0,-69 -56,-125 -125,-125z"/>
  <path class="fil1" d="M25135 11288c-202,0 -365,168 -365,375 0,207 163,375 365,375 202,0 365,-168 365,-375 0,-207 -163,-375 -365,-375zm0 250c-69,0 -125,56 -125,125 0,69 56,125 125,125 69,0 125,-56 125,-125 0,-69 -56,-125 -125,-125z"/>
  <path class="fil1" d="M25135 9788c-202,0 -365,168 -365,375 0,207 163,375 365,375 202,0 365,-168 365,-375 0,-207 -163,-375 -365,-375zm0 250c-69,0 -125,56 -125,125 0,69 56,125 125,125 69,0 125,-56 125,-125 0,-69 -56,-125 -125,-125z"/>
  <path class="fil1" d="M25135 8288c-202,0 -365,168 -365,375 0,207 163,375 365,375 202,0 365,-168 365,-375 0,-207 -163,-375 -365,-375zm0 250c-69,0 -125,56 -125,125 0,69 56,125 125,125 69,0 125,-56 125,-125 0,-69 -56,-125 -125,-125z"/>
  <path class="fil1" d="M26135 8288c-202,0 -365,168 -365,375 0,207 163,375 365,375 202,0 365,-168 365,-375 0,-207 -163,-375 -365,-375zm0 250c-69,0 -125,56 -125,125 0,69 56,125 125,125 69,0 125,-56 125,-125 0,-69 -56,-125 -125,-125z"/>
  <path class="fil1" d="M25135 6288c-202,0 -365,168 -365,375 0,207 163,375 365,375 202,0 365,-168 365,-375 0,-207 -163,-375 -365,-375zm0 250c-69,0 -125,56 -125,125 0,69 56,125 125,125 69,0 125,-56 125,-125 0,-69 -56,-125 -125,-125z"/>
  <path class="fil1" d="M26135 5783c-202,0 -365,167 -365,375 0,207 163,375 365,375 202,0 365,-168 365,-375 0,-208 -163,-375 -365,-375zm0 250c-69,0 -125,56 -125,125 0,69 56,125 125,125 69,0 125,-56 125,-125 0,-69 -56,-125 -125,-125z"/>
  <path class="fil1" d="M25135 4288c-202,0 -365,168 -365,375 0,207 163,375 365,375 202,0 365,-168 365,-375 0,-207 -163,-375 -365,-375zm0 250c-69,0 -125,56 -125,125 0,69 56,125 125,125 69,0 125,-56 125,-125 0,-69 -56,-125 -125,-125z"/>
  <path class="fil1" d="M8625 5894c-207,0 -375,168 -375,375 0,207 168,375 375,375 207,0 375,-168 375,-375 0,-207 -168,-375 -375,-375zm0 250c-71,0 -128,56 -128,125 0,69 57,125 128,125 71,0 128,-56 128,-125 0,-69 -57,-125 -128,-125z"/>
  <path class="fil1" d="M11875 3788c-207,0 -375,168 -375,375 0,207 168,375 375,375 207,0 375,-168 375,-375 0,-207 -168,-375 -375,-375zm0 250c-71,0 -128,56 -128,125 0,69 57,125 128,125 71,0 128,-56 128,-125 0,-69 -57,-125 -128,-125z"/>
  <path class="fil1" d="M11875 2788c-207,0 -375,168 -375,375 0,207 168,375 375,375 207,0 375,-168 375,-375 0,-207 -168,-375 -375,-375zm0 250c-71,0 -128,56 -128,125 0,69 57,125 128,125 71,0 128,-56 128,-125 0,-69 -57,-125 -128,-125z"/>
  <path class="fil1" d="M11875 1787c-207,0 -375,168 -375,375 0,208 168,375 375,375 207,0 375,-167 375,-375 0,-207 -168,-375 -375,-375zm0 250c-71,0 -128,56 -128,125 0,69 57,125 128,125 71,0 128,-56 128,-125 0,-69 -57,-125 -128,-125z"/>
  <path class="fil1" d="M11875 4788c-207,0 -375,168 -375,375 0,207 168,375 375,375 207,0 375,-168 375,-375 0,-207 -168,-375 -375,-375zm0 250c-71,0 -128,56 -128,125 0,69 57,125 128,125 71,0 128,-56 128,-125 0,-69 -57,-125 -128,-125z"/>
  <path class="fil1" d="M13125 5038c-207,0 -375,168 -375,375 0,207 168,375 375,375 207,0 375,-168 375,-375 0,-207 -168,-375 -375,-375zm0 250c-71,0 -128,56 -128,125 0,69 57,125 128,125 71,0 128,-56 128,-125 0,-69 -57,-125 -128,-125z"/>
  <path class="fil1" d="M20125 3553c-207,0 -375,168 -375,375 0,207 168,375 375,375 207,0 375,-168 375,-375 0,-207 -168,-375 -375,-375zm0 250c-71,0 -128,56 -128,125 0,69 57,125 128,125 71,0 128,-56 128,-125 0,-69 -57,-125 -128,-125z"/>
  <path class="fil1" d="M21125 3038c-207,0 -375,168 -375,375 0,207 168,375 375,375 207,0 375,-168 375,-375 0,-207 -168,-375 -375,-375zm0 250c-71,0 -128,56 -128,125 0,69 57,125 128,125 71,0 128,-56 128,-125 0,-69 -57,-125 -128,-125z"/>
  <path class="fil1" d="M21125 2038c-207,0 -375,168 -375,375 0,207 168,375 375,375 207,0 375,-168 375,-375 0,-207 -168,-375 -375,-375zm0 250c-71,0 -128,56 -128,125 0,69 57,125 128,125 71,0 128,-56 128,-125 0,-69 -57,-125 -128,-125z"/>
  <rect class="fil1" x="12000" y="2038" width="7558" height="250"/>
  <rect class="fil1" x="12000" y="3038" width="7500" height="250"/>
  <rect class="fil1" x="12250" y="3538" width="6750" height="250"/>
  <rect class="fil1" x="19955" y="2538" width="545" height="250"/>
  <rect class="fil1" x="19500" y="1539" width="1000" height="250"/>
  <rect class="fil1" x="24085" y="13965" width="754" height="250"/>
  <rect class="fil1" x="23500" y="3788" width="2750" height="261"/>
  <rect class="fil1" x="23500" y="12288" width="2000" height="261"/>
  <rect class="fil1" x="8250" y="10538" width="750" height="250"/>
  <rect class="fil1" x="8250" y="13538" width="1029" height="250"/>
  <rect class="fil1" x="9750" y="14288" width="279" height="4000"/>
  <rect class="fil1" x="10500" y="13538" width="279" height="4750"/>
  <rect class="fil1" x="11250" y="14041" width="250" height="4247"/>
  <rect class="fil1" x="14375" y="16538" width="250" height="1750"/>
  <rect class="fil1" x="11965" y="15788" width="1910" height="250"/>
  <rect class="fil1" x="14098" y="13788" width="1152" height="250"/>
  <rect class="fil1" x="13215" y="14288" width="486" height="250"/>
  <rect class="fil1" x="15750" y="14538" width="250" height="3750"/>
  <rect class="fil1" x="17000" y="16913" width="250" height="1375"/>
  <rect class="fil1" x="20250" y="15788" width="250" height="2500"/>
  <rect class="fil1" x="21000" y="16038" width="250" height="2250"/>
  <rect class="fil1" x="21750" y="16288" width="250" height="2000"/>
  <rect class="fil1" x="22500" y="16538" width="279" height="1750"/>
  <rect class="fil1" x="23250" y="16788" width="279" height="1500"/>
  <rect class="fil1" x="24000" y="17038" width="279" height="1250"/>
  <rect class="fil1" x="16250" y="14697" width="250" height="1466"/>
  <rect class="fil1" x="20309" y="12960" width="279" height="870"/>
  <rect class="fil1" x="21000" y="13038" width="279" height="2079"/>
  <rect class="fil1" x="21750" y="12809" width="279" height="2479"/>
  <rect class="fil1" x="22500" y="14109" width="279" height="1429"/>
  <rect class="fil1" x="23250" y="14715" width="279" height="1073"/>
  <rect class="fil1" x="9500" y="4786" width="250" height="759"/>
  <rect class="fil1" x="10000" y="4642" width="250" height="1218"/>
  <polygon class="fil1" points="10663,2038 9913,1288 10267,1288 11017,2038 "/>
  <polygon class="fil1" points="11500,2038 10750,1288 10750,934 11854,2038 "/>
  <polygon class="fil1" points="19500,1789 18750,1039 18750,685 19854,1789 "/>
  <polygon class="fil1" points="19955,2788 19205,2038 19558,2038 20308,2788 "/>
  <polygon class="fil1" points="19896,3788 19146,3038 19500,3038 20250,3788 "/>
  <polygon class="fil1" points="19396,4288 18646,3538 19000,3538 19573,4111 "/>
  <polygon class="fil1" points="7896,9038 7146,8288 7500,8288 8073,8861 "/>
  <polygon class="fil1" points="7896,10538 7146,9788 7500,9788 8250,10538 "/>
  <polygon class="fil1" points="8146,12288 7146,11288 7500,11288 8500,12288 "/>
  <polygon class="fil1" points="7896,15038 7146,14288 7500,14288 8073,14861 "/>
  <polygon class="fil1" points="7896,16538 7146,15788 7500,15788 8073,16361 "/>
  <polygon class="fil1" points="26896,4038 26146,3288 26500,3288 27250,4038 "/>
  <polygon class="fil1" points="26646,4538 25896,3788 26250,3788 27000,4538 "/>
  <polygon class="fil1" points="26896,6038 26146,5288 26500,5288 27250,6038 "/>
  <polygon class="fil1" points="25604,7538 26354,6788 26000,6788 25250,7538 "/>
  <polygon class="fil1" points="25604,12538 26354,11788 26000,11788 25250,12538 "/>
  <polygon class="fil1" points="14625,16892 13521,15788 13875,15788 14625,16538 "/>
  <polygon class="fil1" points="16000,14892 14896,13788 15250,13788 16000,14538 "/>
  <polygon class="fil1" points="13702,14538 14452,13788 14098,13788 13348,14538 "/>
  <polygon class="fil1" points="17000,16913 16250,16163 16250,15809 17250,16809 17250,16913 "/>
  <polygon class="fil1" points="21750,16642 22779,15613 22779,15538 22500,15538 21750,16288 "/>
  <polygon class="fil1" points="22500,16865 23529,15848 23529,15770 23250,15788 22500,16538 "/>
  <polygon class="fil1" points="21000,16392 22029,15363 22029,15288 21750,15288 21000,16038 "/>
  <polygon class="fil1" points="20250,16142 21279,15117 21279,15038 21000,15038 20250,15788 "/>
  <polygon class="fil1" points="10029,14642 8925,13538 9279,13538 10029,14288 "/>
  <polygon class="fil1" points="8146,10788 7146,9788 7500,9788 8500,10788 "/>
  <polygon class="fil1" points="8146,13788 7146,12788 7500,12788 8500,13788 "/>
  <polygon class="fil1" points="10029,13142 8925,12038 9279,12038 10029,12788 "/>
  <polygon class="fil1" points="10779,13892 9675,12788 10029,12788 10779,13538 "/>
  <rect class="fil1" x="8250" y="12038" width="1029" height="250"/>
  <path class="fil1" d="M8625 11038c-207,0 -375,168 -375,375 0,207 168,375 375,375 207,0 375,-168 375,-375 0,-207 -168,-375 -375,-375zm0 250c-71,0 -128,56 -128,125 0,69 57,125 128,125 71,0 128,-56 128,-125 0,-69 -57,-125 -128,-125z"/>
  <polygon class="fil1" points="11413,2788 10663,2038 11017,2038 11767,2788 "/>
  <polygon class="fil1" points="10146,2538 9396,1788 9750,1788 10500,2538 "/>
  <polygon class="fil1" points="10896,3288 10146,2538 10500,2538 11250,3288 "/>
  <polygon class="fil1" points="9396,4038 8646,3288 9000,3288 9750,4038 "/>
  <polygon class="fil1" points="11000,4538 10250,3788 10604,3788 11354,4538 "/>
  <polygon class="fil1" points="10250,3788 9500,3038 9854,3038 10604,3788 "/>
  <polygon class="fil1" points="9500,3038 8750,2288 9104,2288 9854,3038 "/>
  <polygon class="fil1" points="11747,4139 10647,3038 11000,3038 11750,3788 "/>
  <polygon class="fil1" points="11726,5264 10625,4163 10979,4163 11729,4913 "/>
  <polygon class="fil1" points="11779,3153 10678,2053 11032,2053 11782,2803 "/>
  <polygon class="fil1" points="21384,2284 22134,1534 21780,1534 21030,2284 "/>
  <polygon class="fil1" points="22104,2538 22854,1788 22500,1788 21750,2538 "/>
  <polygon class="fil1" points="22875,3038 23625,2288 23271,2288 22521,3038 "/>
  <polygon class="fil1" points="11987,4155 12604,3538 12250,3538 11984,3804 "/>
  <polygon class="fil1" points="20896,3288 20146,2538 20500,2538 21250,3288 "/>
  <polygon class="fil1" points="20896,2289 20146,1539 20500,1539 21250,2289 "/>
  <polygon class="fil1" points="24335,16057 25085,15307 24900,15138 23981,16057 "/>
  <polygon class="fil1" points="24000,17392 25104,16288 24925,16113 24000,17038 "/>
  <polygon class="fil1" points="19913,14580 20588,13905 20588,13830 20309,13830 19559,14580 "/>
  <polygon class="fil1" points="23250,15068 24354,13965 24000,13965 23250,14715 "/>
  <rect class="fil1" x="23676" y="12979" width="1163" height="250"/>
  <polygon class="fil1" points="23234,13729 23984,12979 23630,12979 22880,13729 "/>
  <polygon class="fil1" points="22500,14463 23604,13359 23250,13359 22500,14109 "/>
  <polygon class="fil1" points="10250,4892 9396,4038 9750,4038 10250,4538 "/>
  <polygon class="fil1" points="9250,4538 8500,3788 8854,3788 9604,4538 "/>
  <polygon class="fil1" points="9498,4786 8748,4036 9102,4036 9750,4684 9750,4786 "/>
  <rect class="fil1" x="18816" y="13521" width="697" height="250"/>
  <polygon class="fil1" points="23250,17142 24354,16038 24175,15863 23250,16788 "/>
  <polygon class="fil1" points="19455,15038 20205,14288 19851,14288 19101,15038 "/>
  <polygon class="fil1" points="18000,14638 19104,13521 18750,13521 18000,14271 "/>
  <polygon class="fil1" points="16250,15038 17264,14030 17264,13947 17000,13947 16250,14697 "/>
  <rect class="fil1" x="12750" y="15038" width="1250" height="250"/>
  <rect class="fil1" transform="matrix(5.72537E-015 -0.549511 1 6.73221E-014 12000 14538)" width="2250" height="250"/>
  <rect class="fil1" x="19000" y="15426" width="250" height="2862"/>
  <path class="fil1" d="M13125 16288c-207,0 -375,168 -375,375 0,207 168,375 375,375 207,0 375,-168 375,-375 0,-207 -168,-375 -375,-375zm0 250c-71,0 -128,56 -128,125 0,69 57,125 128,125 71,0 128,-56 128,-125 0,-69 -57,-125 -128,-125z"/>
  <polygon class="fil1" points="12750,15288 12000,14538 12000,14184 13104,15288 "/>
  <rect class="fil1" x="18000" y="14271" width="250" height="733"/>
  <rect class="fil1" x="16986" y="12960" width="279" height="986"/>
  <polygon class="fil1" points="21870,1798 22620,1048 22266,1048 21516,1798 "/>
  <polygon class="fil1" points="21354,3288 22104,2538 21750,2538 21000,3288 "/>
  <polygon class="fil1" points="22125,3788 22875,3038 22521,3038 21771,3788 "/>
  <polygon class="fil1" points="21375,4538 22125,3788 21771,3788 21198,4361 "/>
  <polygon class="fil1" points="23104,4538 23854,3788 23500,3788 22750,4538 "/>
  <polygon class="fil1" points="22354,5288 23104,4538 22750,4538 22177,5111 "/>
  <polygon class="fil2" points="269,538 3731,538 4269,0 0,0 0,269 "/>
  <polygon class="fil2" points="5769,538 9231,538 9769,0 5231,0 "/>
  <polygon class="fil2" points="20519,538 23981,538 24519,0 19981,0 "/>
  <polygon class="fil2" points="26269,538 29731,538 30269,0 25731,0 "/>
  <polygon class="fil2" points="31769,538 32512,538 32512,0 31231,0 "/>
  <polygon class="fil2" points="5250,16788 1788,16788 1019,17557 1019,18288 6019,18288 6019,17557 "/>
  <polygon class="fil2" points="28038,12538 27000,13576 27000,18288 32512,18288 32512,12538 "/>
  <g id="_595189232">
   <g style="clip-path:url(#id0)">
    <image x="9062" y="1976" width="14375" height="14375" xlink:href="ORBIT_New Wallpaper_Images\ORBIT_New Wallpaper_ImgID1.png"/>
   </g>
  </g>
  <polygon class="fil3" points="20160,3413 12340,3413 10500,5253 10500,13073 12340,14913 20160,14913 22000,13073 22000,5253 "/>
 </g>
 <g id="Layer_x0020_5" visibility="hidden">
  <metadata id="CorelCorpID_2Corel-Layer"/>
  <g style="clip-path:url(#id1)">
   <image x="9394" y="6644" width="13724" height="5000" xlink:href="ORBIT_New Wallpaper_Images\ORBIT_New Wallpaper_ImgID2.png"/>
  </g>
 </g>
</svg>
