<?xml version="1.0" encoding="UTF-8"?>
<!DOCTYPE svg PUBLIC "-//W3C//DTD SVG 1.1//EN" "http://www.w3.org/Graphics/SVG/1.1/DTD/svg11.dtd">
<!-- Creator: CorelDRAW X7 -->
<svg xmlns="http://www.w3.org/2000/svg" xml:space="preserve" width="10cm" height="10cm" version="1.1" style="shape-rendering:geometricPrecision; text-rendering:geometricPrecision; image-rendering:optimizeQuality; fill-rule:evenodd; clip-rule:evenodd"
viewBox="0 0 1000 1000"
 xmlns:xlink="http://www.w3.org/1999/xlink">
 <defs>
  <style type="text/css">
   <![CDATA[
    .fil12 {fill:#757575}
    .fil9 {fill:url(#id0)}
    .fil10 {fill:url(#id1)}
    .fil7 {fill:url(#id2)}
    .fil3 {fill:url(#id3)}
    .fil11 {fill:url(#id4)}
    .fil2 {fill:url(#id5)}
    .fil0 {fill:url(#id6)}
    .fil5 {fill:url(#id7)}
    .fil8 {fill:url(#id8)}
    .fil4 {fill:url(#id9)}
    .fil1 {fill:url(#id10)}
    .fil6 {fill:url(#id11)}
   ]]>
  </style>
  <linearGradient id="id0" gradientUnits="userSpaceOnUse" x1="515.585" y1="28.952" x2="920.84" y2="383.469">
   <stop offset="0" style="stop-opacity:1; stop-color:#F8090F"/>
   <stop offset="1" style="stop-opacity:1; stop-color:#FB4C50"/>
  </linearGradient>
  <linearGradient id="id1" gradientUnits="userSpaceOnUse" x1="566.536" y1="147.888" x2="333.253" y2="276.713">
   <stop offset="0" style="stop-opacity:1; stop-color:#9C27B0"/>
   <stop offset="1" style="stop-opacity:1; stop-color:#B762C5"/>
  </linearGradient>
  <linearGradient id="id2" gradientUnits="userSpaceOnUse" x1="709.092" y1="842.42" x2="276.87" y2="821.893">
   <stop offset="0" style="stop-opacity:1; stop-color:#FFEB3B"/>
   <stop offset="1" style="stop-opacity:1; stop-color:#FFF171"/>
  </linearGradient>
  <linearGradient id="id3" gradientUnits="userSpaceOnUse" x1="583.009" y1="134.84" x2="322.863" y2="239.708">
   <stop offset="0" style="stop-opacity:1; stop-color:#B762C5"/>
   <stop offset="1" style="stop-opacity:1; stop-color:#9C27B0"/>
  </linearGradient>
  <linearGradient id="id4" gradientUnits="userSpaceOnUse" x1="701.494" y1="808.746" x2="277.964" y2="788.632">
   <stop offset="0" style="stop-opacity:1; stop-color:#FFF171"/>
   <stop offset="1" style="stop-opacity:1; stop-color:#FFEB3B"/>
  </linearGradient>
  <linearGradient id="id5" gradientUnits="userSpaceOnUse" x1="657.323" y1="109.612" x2="873.699" y2="285.652">
   <stop offset="0" style="stop-opacity:1; stop-color:#FB4C50"/>
   <stop offset="1" style="stop-opacity:1; stop-color:#F8090F"/>
  </linearGradient>
  <linearGradient id="id6" gradientUnits="userSpaceOnUse" x1="310.496" y1="992.265" x2="298.21" y2="11.403">
   <stop offset="0" style="stop-opacity:1; stop-color:#5DB3F6"/>
   <stop offset="1" style="stop-opacity:1; stop-color:#2196F3"/>
  </linearGradient>
  <linearGradient id="id7" gradientUnits="userSpaceOnUse" x1="267.244" y1="993.111" x2="254.892" y2="6.889">
   <stop offset="0" style="stop-opacity:1; stop-color:#2196F3"/>
   <stop offset="1" style="stop-opacity:1; stop-color:#5DB3F6"/>
  </linearGradient>
  <linearGradient id="id8" gradientUnits="userSpaceOnUse" x1="839.01" y1="837.167" x2="635.622" y2="236.772">
   <stop offset="0" style="stop-opacity:1; stop-color:#4CAF50"/>
   <stop offset="1" style="stop-opacity:1; stop-color:#7DC580"/>
  </linearGradient>
  <linearGradient id="id9" gradientUnits="userSpaceOnUse" x1="560.832" y1="927.099" x2="772.362" y2="681.655">
   <stop offset="0" style="stop-opacity:1; stop-color:#B6B5B5"/>
   <stop offset="1" style="stop-opacity:1; stop-color:#9E9E9E"/>
  </linearGradient>
  <linearGradient id="id10" gradientUnits="userSpaceOnUse" x1="878.096" y1="836.48" x2="676.552" y2="237.46">
   <stop offset="0" style="stop-opacity:1; stop-color:#7DC580"/>
   <stop offset="1" style="stop-opacity:1; stop-color:#4CAF50"/>
  </linearGradient>
  <linearGradient id="id11" gradientUnits="userSpaceOnUse" x1="559.264" y1="944.852" x2="812.066" y2="674.114">
   <stop offset="0" style="stop-opacity:1; stop-color:#9E9E9E"/>
   <stop offset="1" style="stop-opacity:1; stop-color:#B6B5B5"/>
  </linearGradient>
 </defs>
 <g id="Layer_x0020_1">
  <metadata id="CorelCorpID_0Corel-Layer"/>
  <g id="_558365680">
   <path class="fil0" d="M521 1000c-208,-78 -346,-277 -346,-500 0,-216 133,-417 336,-496 -3,1 -6,2 -8,3 -236,41 -415,246 -415,493 0,249 180,453 415,493 6,2 12,4 18,7z"/>
   <path class="fil1" d="M999 552c-24,-234 -210,-420 -443,-446l0 0c240,77 361,225 363,443 -9,179 -89,318 -240,419 177,-67 300,-229 320,-416z"/>
   <path class="fil2" d="M988 385c-44,-188 -194,-335 -383,-374 -21,4 -42,10 -62,17 235,56 383,174 445,357z"/>
   <path class="fil3" d="M642 205c-51,-45 -112,-79 -177,-100 -26,1 -52,5 -78,11 -51,43 -93,95 -123,154 52,-63 96,-103 131,-118 23,-7 45,-10 66,-9 74,8 135,29 181,62z"/>
   <path class="fil4" d="M809 630c-42,148 -147,270 -285,335 12,5 25,9 38,13 126,-70 209,-186 247,-348z"/>
   <path class="fil5" d="M503 993c-235,-40 -415,-244 -415,-493 0,-247 179,-452 415,-493 6,-2 12,-4 18,-7 -285,-10 -520,218 -520,500 0,285 236,510 520,500 -6,-3 -12,-5 -18,-7z"/>
   <path class="fil6" d="M809 630c-38,162 -121,278 -247,348 13,4 26,8 39,11 118,-84 194,-215 208,-359z"/>
   <path class="fil7" d="M482 880c-89,-16 -163,-70 -224,-162 48,99 127,179 225,228 103,-41 189,-115 245,-211 -2,2 -4,4 -6,6 -71,89 -151,135 -240,139z"/>
   <path class="fil8" d="M919 549c-2,-218 -123,-366 -363,-443 187,97 300,294 288,505 -7,135 -67,263 -165,357 151,-101 231,-240 240,-419z"/>
   <path class="fil9" d="M448 72c225,-22 447,107 540,313 -62,-183 -210,-301 -445,-357 -33,11 -65,26 -95,44z"/>
   <path class="fil10" d="M395 152c-35,15 -79,55 -131,118 -2,4 -4,8 -6,12 62,-69 150,-109 243,-109 49,0 97,11 141,32 -46,-33 -107,-54 -181,-62 -21,-1 -43,2 -66,9z"/>
   <path class="fil11" d="M482 880c89,-4 169,-50 240,-139 -133,122 -342,113 -464,-23 61,92 135,146 224,162z"/>
   <path class="fil12" d="M635 425l30 0 0 150 -30 0 0 -150zm-360 0c41,0 75,34 75,75 0,41 -34,75 -75,75 -41,0 -75,-34 -75,-75 0,-41 34,-75 75,-75zm0 30c25,0 45,20 45,45 0,25 -20,45 -45,45 -25,0 -45,-20 -45,-45 0,-25 20,-45 45,-45zm90 -30l75 0c25,0 45,20 45,45 0,18 -11,34 -26,41l26 64 -32 0 -25 -60 -33 0 0 60 -30 0 0 -60 0 -30 30 0 45 0c8,0 15,-7 15,-15 0,-8 -7,-15 -15,-15 -25,0 -50,0 -75,0l0 -30zm135 0l75 0c25,0 45,20 45,45 0,12 -4,22 -11,30 7,8 11,18 11,30 0,25 -20,45 -45,45l-45 0 -30 0 0 -30 0 -30 0 -30 30 0 45 0c8,0 15,-7 15,-15 0,-8 -7,-15 -15,-15 -25,0 -50,0 -75,0l0 -30zm75 120c8,0 15,-7 15,-15 0,-8 -7,-15 -15,-15l-45 0 0 30 45 0zm150 -120l30 0 15 0c17,0 30,13 30,30l-45 0 0 120 -30 0 0 -120 -45 0 0 -30 45 0zm60 120c-8,0 -15,7 -15,15 0,8 7,15 15,15 8,0 15,-7 15,-15 0,-8 -7,-15 -15,-15z"/>
  </g>
 </g>
</svg>
